<svg width="87" height="87" viewBox="0 0 87 87" fill="none" xmlns="http://www.w3.org/2000/svg">
<circle cx="43.4819" cy="43.4819" r="43.4819" fill="#E4E4E4" fill-opacity="0.88"/>
<path d="M43.8767 24.1345L68.0111 42.2354L65.3783 45.7458L61.429 42.7839V63.6273H26.3243V42.7839L22.375 45.7458L19.7422 42.2354L43.8767 24.1345ZM33.6744 43.9906C33.6744 45.9287 34.7165 47.9947 36.8009 50.1888C38.8852 52.3828 41.2438 54.6683 43.8767 57.0452C46.5095 54.6683 48.8681 52.3828 50.9525 50.1888C53.0368 47.9947 54.079 45.9287 54.079 43.9906C54.079 42.3816 53.5305 41.0469 52.4334 39.9865C51.3364 38.926 50.02 38.3958 48.4842 38.3958C47.5334 38.3958 46.6646 38.5881 45.8776 38.9728C45.0907 39.3575 44.4237 39.86 43.8767 40.4801C43.3282 39.8585 42.6429 39.3561 41.8208 38.9728C40.9988 38.5896 40.1483 38.3973 39.2692 38.3958C37.7333 38.3958 36.4169 38.926 35.3199 39.9865C34.2229 41.0469 33.6744 42.3816 33.6744 43.9906ZM57.0409 59.2392V39.4928L43.8767 29.6196L30.7124 39.4928V59.2392H57.0409Z" fill="#AB58E7"/>
</svg>
