<svg width="298" height="319" viewBox="0 0 298 319" fill="none" xmlns="http://www.w3.org/2000/svg">
<g clip-path="url(#clip0_210_13221)">
<path d="M331 272.269H-25V272.447H331V272.269Z" fill="#EBEBEB"/>
<path d="M295.331 283.725H271.75V283.903H295.331V283.725Z" fill="#EBEBEB"/>
<path d="M210.828 285.661H204.641V285.839H210.828V285.661Z" fill="#EBEBEB"/>
<path d="M271.038 277.117H257.375V277.295H271.038V277.117Z" fill="#EBEBEB"/>
<path d="M120.955 142.849H142.422V136.782H120.955V142.849Z" fill="#F5F5F5"/>
<path d="M89.1035 219.211H110.57V213.144H89.1035V219.211Z" fill="#F5F5F5"/>
<path d="M153.003 304.423C229.246 304.423 291.052 300.814 291.052 296.363C291.052 291.912 229.246 288.303 153.003 288.303C76.7601 288.303 14.9531 291.912 14.9531 296.363C14.9531 300.814 76.7601 304.423 153.003 304.423Z" fill="#F5F5F5"/>
<path d="M69.0867 90.6589C64.8717 91.5916 59.9731 97.5012 64.8147 103.532C69.6563 109.563 61.5467 106.928 60.2864 117.48C59.0262 128.032 68.6453 126.259 65.6264 133.18C62.6075 140.1 83.5617 151.065 96.634 142.756C109.706 134.447 110.931 116.554 106.844 110.232C102.757 103.909 96.7907 103.511 99.4963 96.7394C102.202 89.9683 99.0121 82.9266 90.5749 82.8625C84.2096 82.8127 88.0259 78.3627 79.2683 78.3983C71.9632 78.4339 65.5054 83.5603 69.0867 90.6589Z" fill="#263238"/>
<path d="M92.5165 99.4806C92.1053 99.4806 91.7034 99.6025 91.3615 99.831C91.0196 100.059 90.7531 100.384 90.5958 100.764C90.4384 101.144 90.3972 101.562 90.4775 101.965C90.5577 102.369 90.7557 102.739 91.0464 103.03C91.3372 103.321 91.7076 103.519 92.1109 103.599C92.5142 103.679 92.9323 103.638 93.3122 103.48C93.692 103.323 94.0167 103.057 94.2452 102.715C94.4736 102.373 94.5956 101.971 94.5956 101.56C94.5965 101.286 94.5434 101.016 94.4392 100.763C94.3351 100.51 94.182 100.281 93.9887 100.087C93.7955 99.8942 93.5659 99.7411 93.3133 99.6369C93.0606 99.5328 92.7898 99.4797 92.5165 99.4806ZM92.5165 103.147C92.2008 103.147 91.8922 103.054 91.6297 102.878C91.3673 102.703 91.1629 102.453 91.0424 102.161C90.9219 101.869 90.8907 101.548 90.9528 101.239C91.015 100.929 91.1676 100.645 91.3913 100.422C91.6151 100.199 91.8999 100.048 92.2098 99.9874C92.5196 99.9267 92.8405 99.9593 93.1318 100.081C93.4231 100.203 93.6717 100.408 93.8461 100.672C94.0205 100.935 94.1128 101.244 94.1114 101.56C94.1114 101.769 94.0701 101.976 93.9899 102.169C93.9096 102.362 93.7921 102.537 93.6439 102.685C93.4957 102.832 93.3198 102.949 93.1263 103.029C92.9329 103.108 92.7256 103.148 92.5165 103.147Z" fill="white"/>
<path d="M110.047 119.737C110.024 119.734 110.001 119.726 109.981 119.713C109.961 119.701 109.944 119.684 109.931 119.665C109.917 119.645 109.908 119.624 109.904 119.6C109.899 119.577 109.9 119.554 109.905 119.531C110.546 116.213 107.961 113.001 105.227 109.563C102.03 105.597 98.4131 101.097 99.6876 95.7355C100.777 91.1644 100.293 87.3481 98.3205 84.9843C96.7114 83.0548 94.198 82.1363 90.8588 82.3356C87.7972 82.4923 86.8929 81.6236 85.9317 80.7835C84.9705 79.9433 83.696 78.7543 79.303 78.7828C79.257 78.7828 79.2128 78.765 79.1796 78.7332C79.1464 78.7013 79.1268 78.6578 79.125 78.6119C79.125 78.564 79.1435 78.518 79.1767 78.4834C79.2099 78.4489 79.2551 78.4286 79.303 78.4268H79.4525C83.8812 78.4268 85.0987 79.5375 86.1738 80.52C87.1136 81.3816 87.9324 82.1292 90.8445 81.9796C94.2977 81.8016 96.9108 82.7344 98.5982 84.7564C100.642 87.2128 101.147 91.1644 100.022 95.8209C98.7904 101.011 102.194 105.248 105.49 109.349C108.274 112.816 110.909 116.092 110.239 119.566C110.239 119.59 110.233 119.614 110.223 119.635C110.212 119.657 110.198 119.677 110.18 119.693C110.162 119.709 110.141 119.721 110.118 119.728C110.095 119.736 110.071 119.739 110.047 119.737Z" fill="#263238"/>
<path d="M126.789 106.131L125.835 107.996C125.656 108.341 125.562 108.725 125.562 109.114C125.562 109.503 125.656 109.886 125.835 110.232L127.523 113.507C127.855 114.153 128.338 114.71 128.93 115.131C129.522 115.552 130.207 115.825 130.926 115.928L131.823 116.056C133.632 113.073 133.382 108.516 133.382 108.516L133.454 107.213C133.477 106.945 133.447 106.675 133.365 106.419C133.283 106.163 133.151 105.926 132.977 105.721C132.803 105.517 132.59 105.349 132.35 105.227C132.111 105.105 131.849 105.033 131.581 105.013L128.996 104.835C128.543 104.815 128.093 104.927 127.702 105.157C127.31 105.387 126.993 105.725 126.789 106.131Z" fill="#FFC3BD"/>
<path d="M105.591 118.598C105.591 118.598 105.634 118.676 105.67 118.726L105.819 118.947L106.161 119.402C106.403 119.716 106.666 120.022 106.937 120.328C107.478 120.94 108.055 121.538 108.653 122.115C109.865 123.259 111.178 124.291 112.576 125.198C115.316 127.02 118.413 128.233 121.661 128.758L122.266 128.844L122.572 128.886C122.546 128.884 122.52 128.884 122.494 128.886C122.34 128.899 122.193 128.953 122.067 129.043C121.932 129.171 122.259 128.986 122.572 128.516C123.372 127.218 123.965 125.803 124.331 124.322C124.794 122.598 125.142 120.845 125.371 119.075C125.506 118.178 125.584 117.259 125.663 116.348C125.741 115.437 125.798 114.482 125.798 113.664L134 114.055C133.893 115.173 133.786 116.134 133.673 117.167C133.559 118.199 133.395 119.196 133.252 120.207C132.939 122.243 132.576 124.28 132.042 126.373C131.781 127.451 131.46 128.513 131.081 129.556C130.665 130.731 130.135 131.864 129.5 132.938C128.646 134.416 127.419 135.644 125.94 136.498C124.948 137.032 123.848 137.336 122.722 137.388C122.459 137.388 122.131 137.388 121.917 137.388H121.497L120.657 137.331C118.416 137.121 116.201 136.694 114.043 136.056C111.906 135.404 109.829 134.571 107.834 133.564C105.86 132.555 103.967 131.393 102.174 130.09C101.269 129.442 100.394 128.751 99.5321 128.025C99.1049 127.662 98.6849 127.277 98.2577 126.886L97.6169 126.28L97.2822 125.946C97.1612 125.818 97.0829 125.739 96.8906 125.526L105.591 118.598Z" fill="#AB58E7"/>
<path opacity="0.5" d="M105.591 118.598C105.591 118.598 105.634 118.676 105.67 118.726L105.819 118.947L106.161 119.402C106.403 119.716 106.666 120.022 106.937 120.328C107.478 120.94 108.055 121.538 108.653 122.115C109.865 123.259 111.178 124.291 112.576 125.198C115.316 127.02 118.413 128.233 121.661 128.758L122.266 128.844L122.572 128.886C122.546 128.884 122.52 128.884 122.494 128.886C122.34 128.899 122.193 128.953 122.067 129.043C121.932 129.171 122.259 128.986 122.572 128.516C123.372 127.218 123.965 125.803 124.331 124.322C124.794 122.598 125.142 120.845 125.371 119.075C125.506 118.178 125.584 117.259 125.663 116.348C125.741 115.437 125.798 114.482 125.798 113.664L134 114.055C133.893 115.173 133.786 116.134 133.673 117.167C133.559 118.199 133.395 119.196 133.252 120.207C132.939 122.243 132.576 124.28 132.042 126.373C131.781 127.451 131.46 128.513 131.081 129.556C130.665 130.731 130.135 131.864 129.5 132.938C128.646 134.416 127.419 135.644 125.94 136.498C124.948 137.032 123.848 137.336 122.722 137.388C122.459 137.388 122.131 137.388 121.917 137.388H121.497L120.657 137.331C118.416 137.121 116.201 136.694 114.043 136.056C111.906 135.404 109.829 134.571 107.834 133.564C105.86 132.555 103.967 131.393 102.174 130.09C101.269 129.442 100.394 128.751 99.5321 128.025C99.1049 127.662 98.6849 127.277 98.2577 126.886L97.6169 126.28L97.2822 125.946C97.1612 125.818 97.0829 125.739 96.8906 125.526L105.591 118.598Z" fill="white"/>
<path d="M88.5019 290.681C87.4624 288.36 88.1815 278.577 88.3239 276.989C86.5225 276.042 80.3281 277.203 80.3281 277.203C80.3281 277.203 82.0583 287.477 81.0401 290.681C83.4111 292.005 88.5019 290.681 88.5019 290.681Z" fill="#FFC3BD"/>
<path d="M164.937 281.311C162.986 279.681 158.885 270.759 158.308 269.257C156.272 269.207 151.68 272.817 151.68 272.817C151.68 272.817 157.746 281.283 158.223 284.622C160.95 284.736 164.937 281.311 164.937 281.311Z" fill="#FFC3BD"/>
<path d="M94.8365 296.356C89.6318 296.356 88.7418 296.277 85.8155 296.178C83.3093 296.085 82.7112 296.398 80.6962 296.356C79.0159 296.32 79.08 294.711 79.5926 292.853C79.7777 292.198 80.0341 291.429 80.3046 290.503C80.4052 290.152 80.6173 289.843 80.9089 289.624C81.2005 289.404 81.5558 289.285 81.9209 289.286H87.6169C87.8752 289.289 88.1294 289.351 88.3609 289.465C88.5925 289.58 88.7956 289.745 88.9554 289.948C90.3367 291.664 93.32 292.917 95.9259 293.266C98.7454 293.643 96.9156 296.356 94.8365 296.356Z" fill="#AB58E7"/>
<path d="M175.214 285.291C169.611 287.826 166.67 286.537 163.858 287.178C161.444 287.719 161.523 288.175 159.123 288.865C157.528 289.314 156.709 287.612 156.852 286.117C156.969 285.029 157.023 283.936 157.016 282.842C157.009 282.631 157.066 282.424 157.177 282.245C157.289 282.067 157.45 281.925 157.642 281.838L163.21 279.31C163.39 279.23 163.588 279.2 163.784 279.223C163.98 279.247 164.165 279.324 164.321 279.446C166.542 281.226 171.441 283.454 174.837 282.294C177.486 281.418 177.08 284.444 175.214 285.291Z" fill="#AB58E7"/>
<path d="M113.416 158.306C113.416 158.306 126.567 188.502 133.779 210.752C142.615 230.887 160.315 273.13 160.315 273.13C160.664 274.205 155.068 276.178 153.858 275.978C153.858 275.978 130.49 247.954 120.978 216.12C96.2355 185.077 88.9375 160.157 88.9375 160.157L113.416 158.306Z" fill="#263238"/>
<path opacity="0.2" d="M102.868 174.839C106.499 178.819 109.055 192.639 110.358 201.66C105.896 195.109 101.814 188.308 98.1328 181.289C98.4959 177.914 99.9769 175.43 102.868 174.839Z" fill="black"/>
<path d="M106.092 158.869C106.092 158.869 107.025 200.812 103.379 221.475C99.5485 243.169 87.7151 269.342 88.5339 283.582C87.3092 284.294 83.023 284.337 80.6236 283.582C80.6236 283.582 76.5224 241.297 88.8472 220.656C86.1772 200.008 79.0714 173.23 85.3797 160.442L106.092 158.869Z" fill="#263238"/>
<path d="M89.1314 280.621C89.1512 281.599 89.2416 282.574 89.402 283.54C89.4184 283.62 89.418 283.703 89.4011 283.783C89.3842 283.863 89.351 283.939 89.3036 284.005C89.2562 284.072 89.1957 284.128 89.1256 284.171C89.0556 284.213 88.9776 284.241 88.8965 284.252C85.9987 284.715 81.7765 284.045 80.4807 283.81C80.3567 283.787 80.2429 283.726 80.155 283.635C80.067 283.545 80.0092 283.429 79.9894 283.305L79.5551 280.571C79.5405 280.482 79.5454 280.392 79.5696 280.306C79.5938 280.219 79.6366 280.14 79.6949 280.072C79.7533 280.004 79.8259 279.95 79.9075 279.913C79.9891 279.876 80.0778 279.858 80.1674 279.859L88.5334 280.015C88.6921 280.019 88.8431 280.084 88.9547 280.197C89.0663 280.31 89.1296 280.462 89.1314 280.621Z" fill="#263238"/>
<path opacity="0.1" d="M89.1314 280.621C89.1512 281.599 89.2416 282.574 89.402 283.54C89.4184 283.62 89.418 283.703 89.4011 283.783C89.3842 283.863 89.351 283.939 89.3036 284.005C89.2562 284.072 89.1957 284.128 89.1256 284.171C89.0556 284.213 88.9776 284.241 88.8965 284.252C85.9987 284.715 81.7765 284.045 80.4807 283.81C80.3567 283.787 80.2429 283.726 80.155 283.635C80.067 283.545 80.0092 283.429 79.9894 283.305L79.5551 280.571C79.5405 280.482 79.5454 280.392 79.5696 280.306C79.5938 280.219 79.6366 280.14 79.6949 280.072C79.7533 280.004 79.8259 279.95 79.9075 279.913C79.9891 279.876 80.0778 279.858 80.1674 279.859L88.5334 280.015C88.6921 280.019 88.8431 280.084 88.9547 280.197C89.0663 280.31 89.1296 280.462 89.1314 280.621Z" fill="white"/>
<path d="M159.711 270.047C160.067 270.759 160.715 271.92 161.227 272.796C161.306 272.934 161.328 273.098 161.288 273.252C161.248 273.406 161.15 273.539 161.014 273.622C158.723 274.858 156.323 275.88 153.844 276.676C153.719 276.725 153.582 276.732 153.453 276.695C153.324 276.657 153.211 276.578 153.132 276.47L151.437 274.227C151.383 274.155 151.345 274.072 151.326 273.984C151.307 273.896 151.308 273.805 151.328 273.717C151.349 273.63 151.388 273.547 151.444 273.477C151.5 273.406 151.571 273.348 151.651 273.308L158.871 269.791C158.942 269.749 159.021 269.723 159.103 269.713C159.185 269.704 159.268 269.711 159.347 269.735C159.426 269.759 159.499 269.8 159.562 269.853C159.624 269.907 159.675 269.973 159.711 270.047Z" fill="#263238"/>
<path opacity="0.1" d="M159.711 270.047C160.067 270.759 160.715 271.92 161.227 272.796C161.306 272.934 161.328 273.098 161.288 273.252C161.248 273.406 161.15 273.539 161.014 273.622C158.723 274.858 156.323 275.88 153.844 276.676C153.719 276.725 153.582 276.732 153.453 276.695C153.324 276.657 153.211 276.578 153.132 276.47L151.437 274.227C151.383 274.155 151.345 274.072 151.326 273.984C151.307 273.896 151.308 273.805 151.328 273.717C151.349 273.63 151.388 273.547 151.444 273.477C151.5 273.406 151.571 273.348 151.651 273.308L158.871 269.791C158.942 269.749 159.021 269.723 159.103 269.713C159.185 269.704 159.268 269.711 159.347 269.735C159.426 269.759 159.499 269.8 159.562 269.853C159.624 269.907 159.675 269.973 159.711 270.047Z" fill="white"/>
<path d="M107.821 122.763C108.533 125.44 109.644 128.381 110.996 134.867C112.242 140.314 113.132 149.89 113.417 158.32C109.757 161.581 97.5894 161.026 85.3786 160.456C85.343 152.517 82.0821 145.191 73.2177 128.936C72.7201 128.095 72.417 127.153 72.3305 126.179C72.2439 125.206 72.3761 124.225 72.7173 123.309C73.0586 122.393 73.6003 121.565 74.3028 120.885C75.0053 120.206 75.8509 119.692 76.7777 119.381C77.8385 119.025 78.9706 118.669 80.1454 118.342C84.2222 117.102 88.381 116.15 92.5912 115.494C93.9724 115.308 95.4392 115.166 96.792 115.045C99.2401 114.853 101.679 115.518 103.691 116.926C105.703 118.334 107.163 120.397 107.821 122.763Z" fill="#AB58E7"/>
<path opacity="0.5" d="M107.821 122.763C108.533 125.44 109.644 128.381 110.996 134.867C112.242 140.314 113.132 149.89 113.417 158.32C109.757 161.581 97.5894 161.026 85.3786 160.456C85.343 152.517 82.0821 145.191 73.2177 128.936C72.7201 128.095 72.417 127.153 72.3305 126.179C72.2439 125.206 72.3761 124.225 72.7173 123.309C73.0586 122.393 73.6003 121.565 74.3028 120.885C75.0053 120.206 75.8509 119.692 76.7777 119.381C77.8385 119.025 78.9706 118.669 80.1454 118.342C84.2222 117.102 88.381 116.15 92.5912 115.494C93.9724 115.308 95.4392 115.166 96.792 115.045C99.2401 114.853 101.679 115.518 103.691 116.926C105.703 118.334 107.163 120.397 107.821 122.763Z" fill="white"/>
<path d="M93.4106 115.486L80.8438 118.192C80.8438 118.192 91.0111 122.464 99.1635 128.972C101.385 117.779 93.4106 115.486 93.4106 115.486Z" fill="white"/>
<path d="M77.8438 104.116C79.8374 107.875 82.8277 114.91 80.8413 118.178C80.8413 118.178 92.1834 121.453 98.2354 126.658C99.0471 118.242 93.4081 115.486 93.4081 115.486C88.6234 115.486 87.6124 112.026 87.4558 108.794L77.8438 104.116Z" fill="#FFC3BD"/>
<path d="M88.4999 119.253C85.9089 119.199 83.3291 118.896 80.796 118.349C80.7731 118.344 80.7513 118.334 80.7321 118.321C80.7128 118.307 80.6964 118.29 80.6839 118.27C80.6713 118.25 80.6628 118.228 80.6588 118.205C80.6548 118.182 80.6555 118.158 80.6607 118.135C80.6726 118.09 80.7012 118.05 80.7409 118.025C80.7805 118 80.8282 117.991 80.8743 118C80.9455 118 87.6597 119.502 91.5543 118.612C92.8003 118.327 93.5337 117.9 93.6903 117.252C93.7322 116.942 93.7033 116.627 93.6059 116.33C93.5085 116.033 93.345 115.761 93.1279 115.536C93.1106 115.52 93.0969 115.5 93.0876 115.478C93.0782 115.456 93.0734 115.432 93.0734 115.408C93.0734 115.384 93.0782 115.36 93.0876 115.338C93.0969 115.316 93.1106 115.296 93.1279 115.28C93.1611 115.247 93.2059 115.229 93.2525 115.229C93.2991 115.229 93.3438 115.247 93.3771 115.28C93.6392 115.549 93.8345 115.876 93.947 116.235C94.0596 116.594 94.0863 116.974 94.025 117.345C93.7971 118.057 92.9783 118.633 91.5971 118.947C90.5786 119.159 89.5402 119.262 88.4999 119.253Z" fill="white"/>
<path d="M93.5672 119.352C93.4196 119.456 93.2384 119.499 93.06 119.474C92.8816 119.449 92.7194 119.357 92.606 119.217L92.2144 118.705C92.1112 118.557 92.0678 118.376 92.0929 118.197C92.118 118.019 92.2098 117.857 92.3497 117.743C92.4973 117.64 92.6786 117.597 92.8569 117.622C93.0353 117.647 93.1975 117.739 93.3109 117.879L93.7025 118.398C93.8036 118.545 93.8458 118.725 93.8208 118.902C93.7957 119.078 93.7052 119.239 93.5672 119.352Z" fill="#AB58E7"/>
<path opacity="0.2" d="M81.7578 106.024L87.4538 108.794C87.4798 109.553 87.5751 110.309 87.7386 111.051C85.9586 111.193 83.0465 109.89 82.3274 108.203C82.0068 107.517 81.8138 106.779 81.7578 106.024Z" fill="black"/>
<path d="M72.1053 98.4126C75.0388 104.493 76.1424 107.12 80.6493 109.206C87.392 112.346 94.2842 107.868 93.2446 101.147C92.3119 95.0946 87.6839 86.1946 80.5141 85.8315C78.9745 85.7011 77.4282 85.9857 76.0359 86.6557C74.6437 87.3257 73.4565 88.3567 72.598 89.6412C71.7394 90.9258 71.2409 92.417 71.1542 93.9597C71.0676 95.5023 71.396 97.0399 72.1053 98.4126Z" fill="#FFC3BD"/>
<path d="M74.6859 89.5838C77.8686 94.105 77.7048 101.524 73.9739 102.528C68.2779 101.645 67.0391 100.171 67.0391 100.171C67.0391 100.171 68.8618 86.2232 74.6859 89.5838Z" fill="#263238"/>
<path d="M70.1953 91.4422C78.6112 92.5173 85.3111 89 86.5713 87.0278C78.9529 81.88 71.0284 86.2588 70.1953 91.4422Z" fill="#263238"/>
<path d="M87.7734 94.9025C88.7501 95.9299 89.853 96.8294 91.0558 97.5796C90.6428 98.4554 89.347 98.5764 89.347 98.5764L87.7734 94.9025Z" fill="#ED847E"/>
<path d="M87.3644 101.382C87.6714 101.33 87.9738 101.254 88.2686 101.154C88.2886 101.147 88.3068 101.136 88.3222 101.121C88.3375 101.107 88.3496 101.089 88.3577 101.07C88.3658 101.05 88.3696 101.029 88.369 101.008C88.3684 100.987 88.3633 100.966 88.3541 100.947C88.3366 100.906 88.3042 100.873 88.2633 100.854C88.2223 100.836 88.1759 100.833 88.1334 100.848C87.4682 101.082 86.7587 101.165 86.0575 101.088C85.3562 101.012 84.6811 100.779 84.0821 100.406C84.0515 100.377 84.0107 100.36 83.9681 100.36C83.9256 100.36 83.8848 100.377 83.8542 100.406C83.8314 100.443 83.8231 100.486 83.8311 100.528C83.839 100.571 83.8625 100.608 83.897 100.634C84.9204 101.304 86.1559 101.57 87.3644 101.382Z" fill="#263238"/>
<path d="M72.4846 104.664C73.0384 104.994 73.6553 105.205 74.2954 105.282C74.9356 105.359 75.5848 105.302 76.2013 105.113C77.7107 104.586 77.2693 102.749 75.8453 101.553C74.5708 100.499 72.2426 99.5091 71.2173 100.67C70.192 101.83 70.961 103.817 72.4846 104.664Z" fill="#FFC3BD"/>
<path d="M75.165 105.034C74.7538 105.034 74.3518 105.156 74.0099 105.385C73.668 105.613 73.4016 105.938 73.2442 106.318C73.0868 106.698 73.0457 107.116 73.1259 107.519C73.2061 107.922 73.4041 108.293 73.6949 108.583C73.9856 108.874 74.3561 109.072 74.7594 109.152C75.1627 109.233 75.5807 109.191 75.9606 109.034C76.3405 108.877 76.6652 108.61 76.8936 108.268C77.1221 107.926 77.244 107.524 77.244 107.113C77.245 106.84 77.1918 106.569 77.0877 106.317C76.9835 106.064 76.8304 105.834 76.6372 105.641C76.4439 105.448 76.2144 105.295 75.9617 105.191C75.709 105.086 75.4383 105.033 75.165 105.034ZM75.165 108.701C74.8492 108.701 74.5406 108.607 74.2782 108.432C74.0158 108.256 73.8113 108.007 73.6908 107.715C73.5703 107.423 73.5392 107.102 73.6013 106.792C73.6634 106.483 73.816 106.199 74.0398 105.976C74.2635 105.753 74.5484 105.602 74.8582 105.541C75.1681 105.48 75.489 105.513 75.7803 105.635C76.0716 105.756 76.3202 105.962 76.4945 106.225C76.6689 106.488 76.7613 106.797 76.7599 107.113C76.7599 107.322 76.7186 107.529 76.6383 107.722C76.5581 107.916 76.4405 108.091 76.2923 108.238C76.1441 108.386 75.9682 108.503 75.7748 108.582C75.5813 108.662 75.3741 108.702 75.165 108.701Z" fill="white"/>
<path d="M79.8005 94.4254C79.8375 94.4037 79.8689 94.3738 79.8924 94.338C79.9159 94.3022 79.9307 94.2614 79.9358 94.2189C79.9842 93.8197 80.1312 93.4387 80.3636 93.1106C80.5961 92.7824 80.9067 92.5173 81.2673 92.3392C81.3061 92.3232 81.3413 92.2992 81.3705 92.269C81.3997 92.2387 81.4224 92.2027 81.4371 92.1633C81.4518 92.1239 81.4582 92.0819 81.4559 92.0399C81.4536 91.9979 81.4427 91.9568 81.4239 91.9192C81.384 91.84 81.3154 91.7789 81.232 91.7485C81.1487 91.7181 81.0569 91.7205 80.9753 91.7554C80.5147 91.9701 80.1162 92.2983 79.8173 92.7093C79.5183 93.1204 79.3288 93.6006 79.2665 94.105C79.2619 94.1694 79.2751 94.2338 79.3049 94.291C79.3346 94.3483 79.3797 94.3962 79.435 94.4294C79.4903 94.4626 79.5538 94.4798 79.6183 94.4791C79.6829 94.4784 79.7459 94.4598 79.8005 94.4254Z" fill="#263238"/>
<path d="M89.9164 90.6518C89.9582 90.6502 89.9992 90.6391 90.0362 90.6193C90.0732 90.5996 90.1053 90.5718 90.13 90.5379C90.1798 90.467 90.1996 90.3793 90.1849 90.2939C90.1702 90.2085 90.1223 90.1323 90.0516 90.0822C89.6412 89.7396 89.1568 89.4969 88.6367 89.3734C88.1165 89.2498 87.5748 89.2487 87.0541 89.3702C87.0139 89.3827 86.9768 89.4035 86.9452 89.4314C86.9136 89.4592 86.8882 89.4934 86.8707 89.5317C86.8532 89.57 86.8441 89.6116 86.8438 89.6537C86.8435 89.6958 86.8521 89.7375 86.869 89.776C86.9011 89.8583 86.9625 89.9257 87.0415 89.9651C87.1204 90.0046 87.2112 90.0133 87.2962 89.9896C87.7081 89.8953 88.1361 89.897 88.5472 89.9946C88.9583 90.0921 89.3415 90.2829 89.6671 90.5521C89.698 90.587 89.7367 90.6142 89.7799 90.6315C89.8232 90.6488 89.8699 90.6558 89.9164 90.6518Z" fill="#263238"/>
<path d="M89.812 93.0584C89.99 93.5852 89.8618 94.105 89.513 94.226C89.1641 94.3471 88.7369 94.0053 88.5518 93.4784C88.3666 92.9516 88.5019 92.4247 88.8508 92.3108C89.1997 92.1968 89.634 92.56 89.812 93.0584Z" fill="#263238"/>
<path d="M83.6401 95.6002C83.8252 96.1271 83.69 96.6469 83.3411 96.7679C82.9922 96.8889 82.565 96.5472 82.3799 96.0559C82.1948 95.5646 82.33 95.0021 82.6789 94.8882C83.0278 94.7743 83.455 95.0662 83.6401 95.6002Z" fill="#263238"/>
<path d="M82.3828 95.1588L82.9667 93.9056C82.9667 93.9056 83.3013 95.1018 82.3828 95.1588Z" fill="#263238"/>
<path d="M88.5078 92.6953L89.0917 91.4421C89.0917 91.4421 89.4263 92.6312 88.5078 92.6953Z" fill="#263238"/>
<path opacity="0.5" d="M81.0942 129.691L74.9141 132.012C77.4559 136.725 79.4709 140.627 81.0159 144.016C80.6393 139.247 80.6655 134.455 81.0942 129.691Z" fill="#AB58E7"/>
<path d="M119.775 296.356H127.898L127.898 179.296H119.775L119.775 296.356Z" fill="#AB58E7"/>
<path opacity="0.2" d="M119.781 179.303H127.905V198.99L119.781 196.896V179.303Z" fill="black"/>
<path d="M167.281 193.878H94.8139V180.307C94.8139 175.374 96.7733 170.644 100.261 167.156C103.749 163.669 108.479 161.709 113.411 161.709H148.684C153.616 161.709 158.346 163.669 161.834 167.156C165.322 170.644 167.281 175.374 167.281 180.307V193.878Z" fill="#AB58E7"/>
<path d="M100.16 171.635L98.9565 169.919C98.7328 169.601 98.4366 169.341 98.0924 169.16C97.7482 168.979 97.3659 168.883 96.9772 168.879H93.289C92.5634 168.873 91.8468 169.04 91.199 169.367C90.5512 169.694 89.9911 170.171 89.5653 170.759L89.0312 171.471C90.8326 174.461 94.9765 176.355 94.9765 176.355L96.1014 177.032C96.3275 177.177 96.5801 177.275 96.8446 177.321C97.1091 177.367 97.3802 177.361 97.642 177.301C97.9038 177.241 98.1511 177.13 98.3694 176.974C98.5878 176.818 98.7729 176.619 98.9138 176.391L100.274 174.191C100.504 173.799 100.615 173.349 100.595 172.896C100.575 172.442 100.424 172.004 100.16 171.635Z" fill="#FFC3BD"/>
<path d="M83.3666 127.932C83.1814 128.324 82.9394 128.893 82.7329 129.356L82.0992 130.937C81.6862 131.998 81.2946 133.073 80.9386 134.148C80.2292 136.282 79.6421 138.455 79.18 140.656C78.9664 141.738 78.7884 142.792 78.6531 143.874C78.5397 144.902 78.4779 145.936 78.468 146.971C78.4126 148.719 78.7205 150.46 79.3722 152.083L79.6428 152.653C79.6626 152.699 79.6792 152.747 79.6926 152.795C80.1477 154.212 80.8491 155.538 81.7646 156.711C82.8267 158.136 83.9928 159.481 85.2534 160.734C86.5634 162.016 87.9661 163.262 89.4186 164.458C90.1306 165.056 90.8995 165.632 91.6542 166.195C92.409 166.757 93.2064 167.327 93.9113 167.79L89.8742 174.198C88.9059 173.593 88.0871 173.037 87.2114 172.446C86.3356 171.855 85.5097 171.25 84.6695 170.631C82.9892 169.406 81.3445 168.103 79.7425 166.693C78.0786 165.265 76.5222 163.716 75.086 162.058C74.3084 161.16 73.5946 160.208 72.95 159.21C72.2311 158.12 71.6274 156.958 71.1486 155.743L71.469 156.455C69.9481 153.675 69.0674 150.59 68.8916 147.427C68.7118 144.653 68.7881 141.87 69.1194 139.111C69.431 136.477 69.8874 133.862 70.4865 131.279C70.7713 130.002 71.0893 128.73 71.4406 127.462C71.6114 126.829 71.7894 126.202 71.9817 125.568C72.1739 124.935 72.359 124.337 72.6225 123.582L83.3666 127.932Z" fill="#AB58E7"/>
<path opacity="0.5" d="M83.3666 127.932C83.1814 128.324 82.9394 128.893 82.7329 129.356L82.0992 130.937C81.6862 131.998 81.2946 133.073 80.9386 134.148C80.2292 136.282 79.6421 138.455 79.18 140.656C78.9664 141.738 78.7884 142.792 78.6531 143.874C78.5397 144.902 78.4779 145.936 78.468 146.971C78.4126 148.719 78.7205 150.46 79.3722 152.083L79.6428 152.653C79.6626 152.699 79.6792 152.747 79.6926 152.795C80.1477 154.212 80.8491 155.538 81.7646 156.711C82.8267 158.136 83.9928 159.481 85.2534 160.734C86.5634 162.016 87.9661 163.262 89.4186 164.458C90.1306 165.056 90.8995 165.632 91.6542 166.195C92.409 166.757 93.2064 167.327 93.9113 167.79L89.8742 174.198C88.9059 173.593 88.0871 173.037 87.2114 172.446C86.3356 171.855 85.5097 171.25 84.6695 170.631C82.9892 169.406 81.3445 168.103 79.7425 166.693C78.0786 165.265 76.5222 163.716 75.086 162.058C74.3084 161.16 73.5946 160.208 72.95 159.21C72.2311 158.12 71.6274 156.958 71.1486 155.743L71.469 156.455C69.9481 153.675 69.0674 150.59 68.8916 147.427C68.7118 144.653 68.7881 141.87 69.1194 139.111C69.431 136.477 69.8874 133.862 70.4865 131.279C70.7713 130.002 71.0893 128.73 71.4406 127.462C71.6114 126.829 71.7894 126.202 71.9817 125.568C72.1739 124.935 72.359 124.337 72.6225 123.582L83.3666 127.932Z" fill="white"/>
<path opacity="0.1" d="M94.8135 189.855H130.086V180.891H94.8135V189.855Z" fill="white"/>
<path opacity="0.2" d="M130.086 193.878V180.307C130.086 175.374 132.045 170.644 135.533 167.156C139.021 163.669 143.751 161.709 148.683 161.709C153.616 161.709 158.346 163.669 161.834 167.156C165.321 170.644 167.281 175.374 167.281 180.307V193.878" fill="black"/>
<path d="M130.083 196.263H180.977V193.878H130.083V196.263Z" fill="#AB58E7"/>
<path opacity="0.2" d="M143.782 196.263H180.977V193.878H143.782V196.263Z" fill="black"/>
<path d="M123.847 184.137H125.164V152.717H123.847V184.137Z" fill="#E0E0E0"/>
<path d="M116.344 158.819H125.557V154.305C125.557 154.146 125.494 153.994 125.382 153.882C125.27 153.77 125.118 153.707 124.959 153.707H116.344L117.853 156.263L116.344 158.819Z" fill="#AB58E7"/>
<path d="M208.946 62.891C208.867 62.8897 208.789 62.8617 208.727 62.8113C208.665 62.761 208.622 62.6912 208.605 62.6133C208.593 62.5679 208.591 62.5207 208.598 62.4744C208.605 62.4281 208.621 62.3837 208.646 62.3438C208.67 62.3039 208.703 62.2694 208.741 62.2423C208.779 62.2152 208.822 62.1961 208.868 62.1861C209.658 62.0057 210.434 61.7677 211.189 61.4741C211.233 61.4568 211.279 61.4482 211.326 61.4489C211.373 61.4495 211.419 61.4594 211.462 61.4779C211.505 61.4964 211.544 61.5232 211.576 61.5568C211.609 61.5903 211.635 61.63 211.652 61.6735C211.669 61.7169 211.678 61.7634 211.677 61.8102C211.677 61.857 211.667 61.9032 211.648 61.9461C211.63 61.9891 211.603 62.028 211.569 62.0606C211.536 62.0933 211.496 62.119 211.453 62.1363C210.666 62.4508 209.857 62.7055 209.032 62.8981L208.946 62.891Z" fill="#AB58E7"/>
<path d="M182.189 185.889C182.098 185.887 182.01 185.851 181.944 185.788C181.878 185.725 181.838 185.639 181.833 185.547C181.831 185.5 181.838 185.454 181.855 185.41C181.871 185.366 181.895 185.326 181.927 185.291C181.959 185.257 181.997 185.229 182.04 185.209C182.082 185.19 182.128 185.179 182.175 185.177C183.819 185.092 185.5 184.942 187.159 184.721C187.252 184.711 187.345 184.737 187.42 184.794C187.494 184.851 187.543 184.935 187.557 185.027C187.564 185.074 187.562 185.121 187.55 185.167C187.539 185.212 187.518 185.255 187.489 185.292C187.461 185.329 187.425 185.36 187.384 185.383C187.343 185.406 187.298 185.421 187.251 185.426C185.571 185.654 183.869 185.804 182.203 185.882L182.189 185.889ZM192.157 184.572C192.063 184.582 191.968 184.555 191.894 184.495C191.82 184.436 191.772 184.349 191.762 184.255C191.751 184.161 191.779 184.066 191.838 183.992C191.898 183.918 191.984 183.87 192.079 183.86C193.752 183.497 195.382 183.069 196.92 182.585C196.966 182.566 197.015 182.557 197.064 182.558C197.114 182.559 197.162 182.571 197.207 182.592C197.252 182.612 197.292 182.642 197.324 182.679C197.357 182.716 197.381 182.76 197.396 182.807C197.411 182.854 197.416 182.904 197.41 182.953C197.405 183.002 197.39 183.049 197.365 183.092C197.34 183.135 197.307 183.172 197.267 183.201C197.227 183.23 197.182 183.251 197.134 183.262C195.575 183.753 193.93 184.187 192.228 184.558L192.157 184.572ZM201.733 181.496C201.666 181.496 201.599 181.477 201.543 181.44C201.486 181.404 201.441 181.351 201.413 181.289C201.393 181.247 201.381 181.201 201.378 181.154C201.376 181.107 201.383 181.06 201.399 181.015C201.415 180.971 201.439 180.93 201.471 180.895C201.503 180.86 201.541 180.832 201.584 180.812C202.791 180.273 203.955 179.642 205.066 178.926L205.913 178.356C205.991 178.304 206.087 178.286 206.179 178.305C206.271 178.323 206.352 178.378 206.404 178.456C206.431 178.494 206.45 178.537 206.46 178.582C206.47 178.628 206.47 178.675 206.462 178.721C206.453 178.767 206.435 178.81 206.409 178.849C206.384 178.888 206.35 178.921 206.312 178.947L205.457 179.517C204.322 180.255 203.132 180.904 201.897 181.46C201.852 181.481 201.804 181.493 201.755 181.496H201.733ZM210.114 175.949C210.063 175.949 210.012 175.938 209.966 175.917C209.919 175.896 209.877 175.866 209.843 175.828C209.782 175.756 209.751 175.663 209.758 175.568C209.765 175.474 209.808 175.386 209.879 175.323C211.14 174.235 212.309 173.044 213.375 171.763C213.437 171.691 213.524 171.647 213.619 171.639C213.713 171.631 213.807 171.66 213.88 171.72C213.916 171.75 213.946 171.786 213.968 171.827C213.99 171.869 214.003 171.914 214.007 171.96C214.011 172.007 214.005 172.054 213.991 172.098C213.977 172.142 213.953 172.183 213.923 172.219C212.835 173.52 211.644 174.732 210.363 175.843C210.303 175.905 210.222 175.943 210.135 175.949H210.114ZM216.443 168.189C216.386 168.189 216.329 168.174 216.28 168.146C216.196 168.103 216.132 168.029 216.103 167.94C216.073 167.85 216.081 167.753 216.123 167.669C216.356 167.223 216.569 166.767 216.764 166.302C217.204 165.239 217.561 164.144 217.832 163.027C217.843 162.98 217.863 162.936 217.892 162.897C217.92 162.858 217.955 162.825 217.996 162.8C218.037 162.775 218.083 162.758 218.13 162.75C218.178 162.743 218.226 162.745 218.273 162.756C218.32 162.767 218.364 162.788 218.403 162.816C218.442 162.844 218.475 162.88 218.5 162.921C218.525 162.962 218.542 163.007 218.549 163.055C218.557 163.102 218.555 163.151 218.544 163.198C218.266 164.352 217.897 165.483 217.44 166.58C217.241 167.057 217.02 167.526 216.778 168.004C216.748 168.06 216.703 168.108 216.647 168.14C216.592 168.173 216.529 168.19 216.465 168.189H216.443ZM218.914 158.491C218.867 158.489 218.82 158.476 218.777 158.455C218.735 158.435 218.697 158.405 218.666 158.37C218.634 158.334 218.611 158.292 218.596 158.247C218.581 158.202 218.575 158.154 218.579 158.107C218.643 157.138 218.679 156.113 218.679 154.981C218.679 154.354 218.679 153.735 218.679 153.108C218.677 153.061 218.685 153.014 218.701 152.97C218.718 152.925 218.743 152.885 218.776 152.85C218.808 152.816 218.847 152.788 218.89 152.769C218.934 152.75 218.98 152.739 219.028 152.738C219.075 152.736 219.122 152.744 219.166 152.761C219.21 152.777 219.25 152.803 219.284 152.835C219.318 152.868 219.345 152.907 219.363 152.95C219.382 152.994 219.391 153.04 219.391 153.087C219.391 153.721 219.391 154.347 219.391 154.981C219.391 156.134 219.355 157.174 219.291 158.157C219.286 158.247 219.246 158.332 219.18 158.395C219.114 158.457 219.026 158.491 218.935 158.491H218.914ZM218.779 148.416C218.688 148.417 218.6 148.382 218.534 148.32C218.468 148.258 218.428 148.172 218.423 148.082C218.359 146.658 218.295 145.077 218.295 143.525V143.019C218.291 142.972 218.298 142.925 218.315 142.88C218.332 142.836 218.358 142.796 218.392 142.763C218.426 142.73 218.466 142.704 218.511 142.688C218.556 142.672 218.603 142.666 218.651 142.671C218.745 142.671 218.835 142.708 218.902 142.775C218.969 142.842 219.007 142.932 219.007 143.027V143.525C219.007 145.063 219.071 146.608 219.135 148.046C219.137 148.093 219.129 148.14 219.113 148.184C219.097 148.227 219.072 148.268 219.041 148.302C219.009 148.337 218.971 148.364 218.928 148.384C218.886 148.404 218.84 148.415 218.793 148.416H218.779ZM249.217 144.03C248.569 144.03 247.935 144.03 247.33 143.988C247.283 143.986 247.237 143.975 247.195 143.955C247.152 143.936 247.114 143.908 247.082 143.874C247.05 143.839 247.026 143.799 247.01 143.755C246.994 143.711 246.986 143.664 246.988 143.618C246.99 143.571 247.001 143.525 247.021 143.482C247.04 143.44 247.068 143.402 247.102 143.37C247.137 143.338 247.177 143.313 247.221 143.297C247.265 143.281 247.312 143.274 247.358 143.276C247.956 143.276 248.583 143.318 249.217 143.318C250.261 143.324 251.304 143.271 252.342 143.162C252.437 143.151 252.531 143.179 252.606 143.238C252.68 143.298 252.727 143.384 252.738 143.479C252.748 143.573 252.72 143.668 252.661 143.742C252.602 143.816 252.515 143.863 252.421 143.874C251.363 143.983 250.301 144.035 249.238 144.03H249.217ZM242.317 143.667C240.651 143.539 238.957 143.39 237.291 143.219C237.244 143.214 237.198 143.201 237.157 143.179C237.115 143.156 237.079 143.126 237.049 143.09C237.019 143.053 236.997 143.011 236.983 142.966C236.97 142.921 236.965 142.874 236.97 142.827C236.975 142.78 236.988 142.735 237.011 142.693C237.033 142.652 237.063 142.615 237.099 142.585C237.136 142.556 237.178 142.533 237.223 142.52C237.268 142.506 237.315 142.502 237.362 142.507C239.021 142.678 240.708 142.834 242.346 142.962C242.44 142.962 242.531 143 242.598 143.067C242.664 143.134 242.702 143.224 242.702 143.318C242.702 143.413 242.664 143.503 242.598 143.57C242.531 143.637 242.44 143.674 242.346 143.674L242.317 143.667ZM257.269 142.649C257.201 142.648 257.134 142.629 257.077 142.592C257.019 142.556 256.972 142.504 256.942 142.443C256.903 142.357 256.9 142.259 256.934 142.171C256.967 142.083 257.034 142.012 257.12 141.973C258.613 141.34 259.877 140.267 260.744 138.897C260.766 138.853 260.797 138.814 260.835 138.782C260.873 138.751 260.917 138.728 260.964 138.714C261.012 138.701 261.061 138.697 261.11 138.704C261.159 138.71 261.206 138.727 261.248 138.753C261.29 138.779 261.326 138.813 261.354 138.853C261.383 138.894 261.402 138.939 261.412 138.988C261.421 139.036 261.42 139.086 261.41 139.134C261.399 139.182 261.378 139.228 261.349 139.267C260.412 140.76 259.04 141.93 257.419 142.621C257.372 142.64 257.321 142.65 257.269 142.649ZM232.314 142.649H232.271C230.612 142.436 228.925 142.194 227.287 141.937C227.241 141.93 227.196 141.914 227.156 141.89C227.116 141.866 227.081 141.834 227.053 141.796C227.026 141.759 227.006 141.716 226.994 141.67C226.983 141.625 226.981 141.578 226.988 141.531C227.004 141.439 227.055 141.356 227.131 141.3C227.206 141.244 227.301 141.22 227.394 141.232C229.046 141.489 230.719 141.731 232.378 141.944C232.472 141.95 232.561 141.993 232.623 142.064C232.686 142.134 232.718 142.227 232.713 142.322C232.707 142.416 232.664 142.504 232.593 142.567C232.522 142.63 232.43 142.662 232.335 142.656L232.314 142.649ZM222.346 141.104H222.282C220.637 140.805 218.971 140.478 217.333 140.136C217.239 140.117 217.156 140.061 217.102 139.981C217.049 139.901 217.03 139.803 217.049 139.709C217.067 139.614 217.123 139.531 217.203 139.478C217.283 139.424 217.381 139.405 217.476 139.424C219.113 139.766 220.772 140.093 222.41 140.392C222.456 140.4 222.501 140.417 222.54 140.442C222.58 140.467 222.615 140.499 222.642 140.538C222.669 140.576 222.688 140.62 222.699 140.665C222.709 140.711 222.71 140.759 222.702 140.805C222.684 140.885 222.64 140.956 222.577 141.008C222.514 141.06 222.435 141.089 222.353 141.09L222.346 141.104ZM212.485 139.039H212.399C210.776 138.655 209.124 138.242 207.508 137.815C207.461 137.803 207.417 137.782 207.378 137.754C207.34 137.725 207.307 137.689 207.282 137.648C207.257 137.606 207.241 137.56 207.234 137.513C207.227 137.465 207.229 137.416 207.241 137.37C207.252 137.323 207.273 137.279 207.302 137.24C207.331 137.202 207.367 137.169 207.408 137.144C207.449 137.119 207.495 137.103 207.543 137.096C207.59 137.089 207.639 137.091 207.686 137.103C209.302 137.53 210.94 137.943 212.563 138.32C212.655 138.344 212.735 138.402 212.785 138.483C212.836 138.564 212.853 138.661 212.833 138.755C212.815 138.831 212.771 138.899 212.709 138.948C212.647 138.997 212.571 139.024 212.492 139.025L212.485 139.039ZM219.021 138.37H218.964C218.871 138.354 218.788 138.303 218.732 138.228C218.677 138.152 218.652 138.057 218.665 137.964C218.914 136.271 219.336 134.608 219.925 133.002C219.957 132.913 220.023 132.841 220.109 132.8C220.194 132.76 220.292 132.756 220.381 132.788C220.469 132.82 220.542 132.886 220.582 132.972C220.622 133.057 220.626 133.155 220.594 133.244C220.027 134.802 219.621 136.415 219.384 138.057C219.37 138.141 219.327 138.218 219.261 138.272C219.196 138.327 219.113 138.357 219.028 138.356L219.021 138.37ZM202.737 136.469C202.704 136.476 202.671 136.476 202.638 136.469C201.036 136.006 199.405 135.508 197.81 134.995C197.765 134.982 197.724 134.959 197.688 134.929C197.652 134.899 197.622 134.861 197.601 134.819C197.58 134.778 197.567 134.732 197.564 134.685C197.561 134.638 197.567 134.591 197.582 134.547C197.612 134.457 197.675 134.383 197.76 134.34C197.844 134.297 197.941 134.29 198.031 134.319C199.619 134.824 201.235 135.323 202.837 135.786C202.928 135.812 203.004 135.873 203.049 135.956C203.095 136.039 203.106 136.136 203.079 136.227C203.054 136.295 203.008 136.354 202.948 136.394C202.888 136.435 202.817 136.456 202.744 136.455L202.737 136.469ZM262.054 134.639C261.971 134.638 261.892 134.608 261.828 134.555C261.765 134.502 261.721 134.428 261.705 134.347C261.321 132.778 260.436 131.376 259.185 130.353C259.152 130.32 259.125 130.282 259.107 130.239C259.089 130.196 259.08 130.15 259.08 130.104C259.08 130.057 259.089 130.011 259.107 129.969C259.125 129.926 259.152 129.887 259.185 129.855C259.218 129.821 259.257 129.795 259.301 129.777C259.344 129.759 259.39 129.749 259.437 129.749C259.484 129.749 259.531 129.759 259.574 129.777C259.618 129.795 259.657 129.821 259.69 129.855C261.059 130.977 262.022 132.518 262.431 134.24C262.441 134.286 262.441 134.334 262.432 134.379C262.423 134.425 262.405 134.469 262.38 134.508C262.354 134.547 262.321 134.581 262.282 134.607C262.243 134.633 262.2 134.651 262.154 134.661L262.054 134.639ZM193.147 133.393C193.107 133.401 193.066 133.401 193.026 133.393C191.402 132.816 189.815 132.218 188.291 131.62C188.204 131.584 188.135 131.515 188.098 131.429C188.061 131.343 188.058 131.245 188.091 131.158C188.109 131.114 188.134 131.074 188.167 131.041C188.2 131.007 188.239 130.98 188.282 130.962C188.325 130.943 188.371 130.934 188.418 130.933C188.464 130.932 188.511 130.941 188.554 130.958C190.064 131.556 191.651 132.147 193.261 132.724C193.349 132.755 193.422 132.819 193.463 132.903C193.504 132.987 193.511 133.084 193.481 133.172C193.452 133.235 193.406 133.288 193.348 133.324C193.29 133.361 193.222 133.38 193.154 133.379L193.147 133.393ZM183.777 129.669C183.73 129.68 183.681 129.68 183.634 129.669C182.068 128.957 180.53 128.245 179.07 127.498C179.025 127.479 178.984 127.451 178.951 127.416C178.917 127.38 178.89 127.339 178.873 127.293C178.856 127.247 178.849 127.198 178.852 127.149C178.855 127.1 178.868 127.052 178.89 127.009C178.912 126.965 178.943 126.926 178.98 126.895C179.018 126.864 179.062 126.841 179.109 126.827C179.156 126.814 179.205 126.81 179.254 126.816C179.302 126.823 179.349 126.839 179.391 126.864C180.815 127.576 182.367 128.288 183.926 129C184.021 129.02 184.103 129.077 184.156 129.157C184.209 129.238 184.227 129.337 184.208 129.431C184.188 129.525 184.131 129.608 184.05 129.661C183.97 129.714 183.871 129.732 183.777 129.712V129.669ZM222.595 129.05C222.519 129.05 222.445 129.028 222.381 128.986C222.306 128.929 222.256 128.845 222.243 128.751C222.229 128.658 222.254 128.563 222.31 128.488C223.241 127.21 224.385 126.102 225.692 125.212L226.062 124.977C226.102 124.953 226.146 124.936 226.193 124.928C226.239 124.921 226.286 124.922 226.332 124.933C226.377 124.943 226.42 124.963 226.458 124.99C226.497 125.017 226.529 125.052 226.554 125.091C226.578 125.131 226.595 125.175 226.603 125.221C226.611 125.268 226.609 125.315 226.599 125.361C226.588 125.406 226.568 125.449 226.541 125.487C226.514 125.525 226.48 125.558 226.44 125.583L226.091 125.803C224.851 126.647 223.765 127.697 222.88 128.908C222.846 128.948 222.803 128.98 222.755 129.002C222.707 129.024 222.655 129.036 222.602 129.036L222.595 129.05ZM255.254 127.626C255.195 127.625 255.136 127.611 255.084 127.583C254.485 127.263 253.902 126.964 253.346 126.686C252.442 126.245 251.509 125.832 250.569 125.462C250.523 125.447 250.479 125.424 250.442 125.392C250.405 125.36 250.374 125.321 250.353 125.277C250.332 125.233 250.319 125.185 250.317 125.136C250.315 125.087 250.323 125.038 250.341 124.992C250.359 124.947 250.386 124.905 250.42 124.87C250.455 124.836 250.496 124.808 250.541 124.79C250.587 124.772 250.636 124.764 250.685 124.765C250.733 124.767 250.782 124.778 250.826 124.799C251.787 125.17 252.741 125.597 253.674 126.052C254.229 126.33 254.827 126.629 255.432 126.957C255.514 127.003 255.575 127.08 255.601 127.17C255.628 127.26 255.619 127.357 255.575 127.441C255.543 127.495 255.497 127.539 255.442 127.569C255.387 127.6 255.324 127.614 255.262 127.612L255.254 127.626ZM174.798 125.098C174.735 125.1 174.674 125.082 174.62 125.049C173.132 124.187 171.687 123.29 170.348 122.371C170.279 122.316 170.234 122.236 170.22 122.149C170.206 122.061 170.226 121.972 170.275 121.898C170.324 121.824 170.399 121.771 170.485 121.749C170.571 121.727 170.662 121.739 170.74 121.78C172.093 122.685 173.524 123.582 175.012 124.436C175.079 124.476 175.131 124.536 175.16 124.608C175.189 124.68 175.194 124.76 175.174 124.835C175.154 124.91 175.11 124.976 175.048 125.024C174.987 125.071 174.912 125.098 174.834 125.098H174.798ZM245.892 123.981H245.806C244.187 123.597 242.543 123.325 240.886 123.169C240.793 123.16 240.707 123.114 240.647 123.042C240.587 122.97 240.558 122.878 240.566 122.784C240.577 122.691 240.624 122.605 240.697 122.545C240.77 122.485 240.863 122.456 240.957 122.464C242.636 122.623 244.301 122.899 245.941 123.29C246.036 123.3 246.122 123.348 246.182 123.422C246.241 123.496 246.269 123.591 246.258 123.685C246.248 123.78 246.2 123.866 246.126 123.925C246.052 123.985 245.958 124.012 245.863 124.002L245.892 123.981ZM230.904 123.753C230.823 123.752 230.745 123.724 230.682 123.674C230.619 123.623 230.574 123.554 230.555 123.475C230.534 123.383 230.549 123.287 230.599 123.207C230.648 123.127 230.727 123.07 230.819 123.048C232.069 122.752 233.34 122.55 234.621 122.443C235.034 122.443 235.454 122.379 235.867 122.357C235.914 122.352 235.962 122.357 236.007 122.372C236.052 122.386 236.094 122.41 236.129 122.441C236.165 122.473 236.193 122.511 236.213 122.555C236.233 122.598 236.243 122.644 236.244 122.692C236.248 122.785 236.215 122.876 236.152 122.945C236.09 123.015 236.003 123.057 235.909 123.062C235.496 123.062 235.091 123.119 234.685 123.155C233.44 123.258 232.205 123.453 230.989 123.738L230.904 123.753ZM166.447 119.481C166.367 119.482 166.29 119.457 166.226 119.41C164.873 118.349 163.577 117.238 162.374 116.12C162.341 116.087 162.314 116.048 162.296 116.004C162.278 115.961 162.269 115.914 162.269 115.867C162.269 115.82 162.278 115.774 162.296 115.73C162.314 115.687 162.341 115.648 162.374 115.615C162.442 115.549 162.532 115.512 162.627 115.512C162.721 115.512 162.812 115.549 162.88 115.615C164.069 116.725 165.35 117.822 166.689 118.868C166.762 118.927 166.809 119.013 166.82 119.106C166.831 119.199 166.804 119.293 166.746 119.367C166.708 119.404 166.661 119.432 166.611 119.448C166.56 119.464 166.506 119.468 166.454 119.459L166.447 119.481ZM159.099 112.61C159.048 112.609 158.997 112.598 158.951 112.578C158.904 112.557 158.863 112.527 158.828 112.489C157.71 111.217 156.666 109.881 155.703 108.487C155.649 108.41 155.628 108.314 155.644 108.221C155.66 108.128 155.712 108.045 155.788 107.989C155.867 107.938 155.963 107.919 156.056 107.937C156.148 107.954 156.231 108.006 156.286 108.082C157.248 109.447 158.289 110.755 159.405 111.998C159.47 112.064 159.507 112.154 159.507 112.247C159.507 112.34 159.47 112.429 159.405 112.496C159.366 112.533 159.318 112.561 159.266 112.577C159.214 112.593 159.16 112.597 159.106 112.589L159.099 112.61ZM153.403 104.329C153.337 104.329 153.273 104.31 153.217 104.275C153.162 104.24 153.118 104.189 153.09 104.13C152.309 102.625 151.636 101.066 151.075 99.4664C151.045 99.3767 151.051 99.2789 151.092 99.1938C151.134 99.1087 151.206 99.043 151.295 99.0107C151.384 98.9812 151.481 98.9878 151.565 99.0291C151.649 99.0704 151.713 99.1431 151.744 99.2314C152.294 100.802 152.956 102.332 153.723 103.81C153.765 103.894 153.773 103.991 153.743 104.08C153.714 104.17 153.65 104.244 153.567 104.287C153.515 104.308 153.458 104.315 153.403 104.308V104.329ZM150.149 94.8171C150.064 94.8179 149.983 94.7881 149.918 94.7331C149.854 94.6781 149.812 94.6017 149.8 94.518C149.729 94.1407 149.672 93.7633 149.615 93.3788C149.441 92.1237 149.353 90.8581 149.352 89.591V89.4415C149.352 89.347 149.389 89.2565 149.456 89.1897C149.523 89.123 149.613 89.0855 149.708 89.0855C149.802 89.0855 149.893 89.123 149.959 89.1897C150.026 89.2565 150.064 89.347 150.064 89.4415V89.5839C150.063 90.8177 150.148 92.0501 150.32 93.272C150.377 93.6494 150.434 94.0196 150.498 94.3899C150.515 94.4823 150.494 94.5777 150.441 94.655C150.387 94.7324 150.305 94.7855 150.213 94.8028L150.149 94.8171ZM150.185 84.7921H150.121C150.028 84.7748 149.946 84.7217 149.893 84.6443C149.84 84.5669 149.819 84.4716 149.836 84.3791C150.145 82.7066 150.595 81.0632 151.181 79.4663C151.217 79.3782 151.284 79.307 151.37 79.2672C151.456 79.2275 151.554 79.2223 151.644 79.2527C151.732 79.2863 151.802 79.3529 151.841 79.4382C151.88 79.5235 151.883 79.6206 151.851 79.7084C151.275 81.2674 150.834 82.8729 150.533 84.5073C150.518 84.5948 150.469 84.6731 150.398 84.726C150.326 84.7789 150.237 84.8026 150.149 84.7921H150.185ZM153.659 75.3866C153.597 75.3834 153.536 75.3664 153.481 75.3367C153.4 75.2878 153.341 75.209 153.317 75.1172C153.293 75.0254 153.306 74.9279 153.353 74.8455C154.209 73.3745 155.198 71.985 156.308 70.6945C156.372 70.6363 156.456 70.6037 156.543 70.6029C156.63 70.602 156.714 70.6329 156.779 70.6898C156.845 70.7467 156.888 70.8256 156.899 70.9117C156.911 70.9978 156.89 71.0852 156.842 71.1573C155.775 72.4212 154.822 73.7769 153.994 75.2086C153.959 75.2703 153.906 75.3203 153.843 75.352C153.78 75.3837 153.708 75.3957 153.638 75.3866H153.659ZM160.217 67.8038C160.143 67.8034 160.072 67.7802 160.012 67.7374C159.952 67.6946 159.907 67.6343 159.883 67.5649C159.858 67.4954 159.856 67.4202 159.877 67.3495C159.897 67.2788 159.939 67.2161 159.996 67.1701C161.341 66.1255 162.784 65.2124 164.304 64.4431C164.389 64.4006 164.487 64.3937 164.577 64.4237C164.667 64.4537 164.742 64.5184 164.784 64.6033C164.827 64.6883 164.834 64.7867 164.804 64.8768C164.774 64.9669 164.709 65.0414 164.624 65.0839C163.146 65.833 161.742 66.7198 160.43 67.7326C160.363 67.784 160.28 67.8093 160.195 67.8038H160.217ZM203.948 63.368C202.252 63.3308 200.561 63.1809 198.885 62.9195C198.791 62.9062 198.706 62.8561 198.648 62.7799C198.591 62.7038 198.566 62.608 198.579 62.5136C198.592 62.4192 198.643 62.3339 198.719 62.2765C198.795 62.2191 198.891 62.1942 198.985 62.2075C200.635 62.4668 202.3 62.6143 203.969 62.6489C204.063 62.6489 204.154 62.6864 204.221 62.7532C204.288 62.8199 204.325 62.9105 204.325 63.0049C204.325 63.0993 204.288 63.1899 204.221 63.2566C204.154 63.3234 204.063 63.3609 203.969 63.3609L203.948 63.368ZM169.102 63.1829C169.056 63.1904 169.008 63.1886 168.962 63.1776C168.916 63.1666 168.872 63.1467 168.834 63.1189C168.796 63.0911 168.763 63.0561 168.738 63.0158C168.714 62.9754 168.697 62.9306 168.689 62.8839C168.682 62.8371 168.684 62.7893 168.695 62.7433C168.706 62.6972 168.726 62.6538 168.753 62.6154C168.781 62.5771 168.816 62.5446 168.857 62.5198C168.897 62.495 168.942 62.4784 168.989 62.4709C170.6 61.9479 172.24 61.52 173.901 61.1893C173.948 61.18 173.995 61.18 174.042 61.1894C174.088 61.1987 174.132 61.2172 174.171 61.2437C174.21 61.2702 174.244 61.3042 174.269 61.3438C174.295 61.3833 174.313 61.4276 174.321 61.4741C174.332 61.5195 174.333 61.5666 174.324 61.6125C174.316 61.6583 174.298 61.7019 174.272 61.7405C174.246 61.7792 174.212 61.8122 174.173 61.8374C174.134 61.8626 174.09 61.8795 174.044 61.8871C172.409 62.214 170.795 62.6348 169.209 63.1473L169.102 63.1829ZM193.965 62.0651H193.901C192.371 61.7803 190.64 61.4599 188.917 61.2178C188.825 61.2037 188.742 61.154 188.686 61.0795C188.631 61.0049 188.606 60.9114 188.618 60.8191C188.624 60.7724 188.638 60.7273 188.661 60.6864C188.684 60.6455 188.715 60.6097 188.753 60.5812C188.79 60.5526 188.832 60.5318 188.878 60.5201C188.923 60.5083 188.971 60.5059 189.017 60.5129C190.726 60.755 192.463 61.0825 194.001 61.3673C194.093 61.3846 194.175 61.4377 194.229 61.5151C194.282 61.5924 194.303 61.6878 194.286 61.7803C194.274 61.8595 194.236 61.9325 194.178 61.9879C194.12 62.0433 194.045 62.0779 193.965 62.0864V62.0651ZM178.957 61.1466C178.862 61.1522 178.769 61.1202 178.699 61.0574C178.628 60.9947 178.585 60.9064 178.579 60.8119C178.573 60.7175 178.606 60.6247 178.668 60.5539C178.731 60.4832 178.819 60.4402 178.914 60.4346C179.818 60.3349 180.786 60.2423 181.762 60.164C182.388 60.1142 183.051 60.0857 183.727 60.0857H183.962C184.009 60.0866 184.055 60.0967 184.098 60.1155C184.14 60.1343 184.179 60.1613 184.212 60.195C184.244 60.2287 184.269 60.2685 184.286 60.312C184.303 60.3556 184.312 60.4021 184.311 60.4488C184.306 60.5408 184.266 60.6276 184.2 60.6921C184.134 60.7567 184.047 60.7943 183.955 60.7977H183.727C183.072 60.7977 182.431 60.7977 181.812 60.8689C180.829 60.9472 179.875 61.0398 178.964 61.1466H178.957Z" fill="#AB58E7"/>
<path d="M177.079 185.903C176.232 185.868 175.392 185.804 174.58 185.725C174.534 185.722 174.488 185.709 174.447 185.687C174.405 185.666 174.369 185.637 174.339 185.601C174.309 185.565 174.286 185.523 174.273 185.479C174.259 185.434 174.255 185.387 174.26 185.341C174.262 185.294 174.274 185.248 174.296 185.206C174.317 185.164 174.346 185.127 174.382 185.097C174.418 185.067 174.46 185.044 174.505 185.031C174.55 185.018 174.598 185.014 174.644 185.02C175.449 185.099 176.275 185.156 177.115 185.191C177.209 185.191 177.3 185.229 177.367 185.295C177.433 185.362 177.471 185.453 177.471 185.547C177.471 185.642 177.433 185.732 177.367 185.799C177.3 185.866 177.209 185.903 177.115 185.903H177.079Z" fill="#AB58E7"/>
<g opacity="0.6">
<path d="M208.946 62.891C208.867 62.8897 208.789 62.8617 208.727 62.8113C208.665 62.761 208.622 62.6912 208.605 62.6133C208.593 62.5679 208.591 62.5207 208.598 62.4744C208.605 62.4281 208.621 62.3837 208.646 62.3438C208.67 62.3039 208.703 62.2694 208.741 62.2423C208.779 62.2152 208.822 62.1961 208.868 62.1861C209.658 62.0057 210.434 61.7677 211.189 61.4741C211.233 61.4568 211.279 61.4482 211.326 61.4489C211.373 61.4495 211.419 61.4594 211.462 61.4779C211.505 61.4964 211.544 61.5232 211.576 61.5568C211.609 61.5903 211.635 61.63 211.652 61.6735C211.669 61.7169 211.678 61.7634 211.677 61.8102C211.677 61.857 211.667 61.9032 211.648 61.9461C211.63 61.9891 211.603 62.028 211.569 62.0606C211.536 62.0933 211.496 62.119 211.453 62.1363C210.666 62.4508 209.857 62.7055 209.032 62.8981L208.946 62.891Z" fill="white"/>
<path d="M182.189 185.889C182.098 185.887 182.01 185.851 181.944 185.788C181.878 185.725 181.838 185.639 181.833 185.547C181.831 185.5 181.838 185.454 181.855 185.41C181.871 185.366 181.895 185.326 181.927 185.291C181.959 185.257 181.997 185.229 182.04 185.209C182.082 185.19 182.128 185.179 182.175 185.177C183.819 185.092 185.5 184.942 187.159 184.721C187.252 184.711 187.345 184.737 187.42 184.794C187.494 184.851 187.543 184.935 187.557 185.027C187.564 185.074 187.562 185.121 187.55 185.167C187.539 185.212 187.518 185.255 187.489 185.292C187.461 185.329 187.425 185.36 187.384 185.383C187.343 185.406 187.298 185.421 187.251 185.426C185.571 185.654 183.869 185.804 182.203 185.882L182.189 185.889ZM192.157 184.572C192.063 184.582 191.968 184.555 191.894 184.495C191.82 184.436 191.772 184.349 191.762 184.255C191.751 184.161 191.779 184.066 191.838 183.992C191.898 183.918 191.984 183.87 192.079 183.86C193.752 183.497 195.382 183.069 196.92 182.585C196.966 182.566 197.015 182.557 197.064 182.558C197.114 182.559 197.162 182.571 197.207 182.592C197.252 182.612 197.292 182.642 197.324 182.679C197.357 182.716 197.381 182.76 197.396 182.807C197.411 182.854 197.416 182.904 197.41 182.953C197.405 183.002 197.39 183.049 197.365 183.092C197.34 183.135 197.307 183.172 197.267 183.201C197.227 183.23 197.182 183.251 197.134 183.262C195.575 183.753 193.93 184.187 192.228 184.558L192.157 184.572ZM201.733 181.496C201.666 181.496 201.599 181.477 201.543 181.44C201.486 181.404 201.441 181.351 201.413 181.289C201.393 181.247 201.381 181.201 201.378 181.154C201.376 181.107 201.383 181.06 201.399 181.015C201.415 180.971 201.439 180.93 201.471 180.895C201.503 180.86 201.541 180.832 201.584 180.812C202.791 180.273 203.955 179.642 205.066 178.926L205.913 178.356C205.991 178.304 206.087 178.286 206.179 178.305C206.271 178.323 206.352 178.378 206.404 178.456C206.431 178.494 206.45 178.537 206.46 178.582C206.47 178.628 206.47 178.675 206.462 178.721C206.453 178.767 206.435 178.81 206.409 178.849C206.384 178.888 206.35 178.921 206.312 178.947L205.457 179.517C204.322 180.255 203.132 180.904 201.897 181.46C201.852 181.481 201.804 181.493 201.755 181.496H201.733ZM210.114 175.949C210.063 175.949 210.012 175.938 209.966 175.917C209.919 175.896 209.877 175.866 209.843 175.828C209.782 175.756 209.751 175.663 209.758 175.568C209.765 175.474 209.808 175.386 209.879 175.323C211.14 174.235 212.309 173.044 213.375 171.763C213.437 171.691 213.524 171.647 213.619 171.639C213.713 171.631 213.807 171.66 213.88 171.72C213.916 171.75 213.946 171.786 213.968 171.827C213.99 171.869 214.003 171.914 214.007 171.96C214.011 172.007 214.005 172.054 213.991 172.098C213.977 172.142 213.953 172.183 213.923 172.219C212.835 173.52 211.644 174.732 210.363 175.843C210.303 175.905 210.222 175.943 210.135 175.949H210.114ZM216.443 168.189C216.386 168.189 216.329 168.174 216.28 168.146C216.196 168.103 216.132 168.029 216.103 167.94C216.073 167.85 216.081 167.753 216.123 167.669C216.356 167.223 216.569 166.767 216.764 166.302C217.204 165.239 217.561 164.144 217.832 163.027C217.843 162.98 217.863 162.936 217.892 162.897C217.92 162.858 217.955 162.825 217.996 162.8C218.037 162.775 218.083 162.758 218.13 162.75C218.178 162.743 218.226 162.745 218.273 162.756C218.32 162.767 218.364 162.788 218.403 162.816C218.442 162.844 218.475 162.88 218.5 162.921C218.525 162.962 218.542 163.007 218.549 163.055C218.557 163.102 218.555 163.151 218.544 163.198C218.266 164.352 217.897 165.483 217.44 166.58C217.241 167.057 217.02 167.526 216.778 168.004C216.748 168.06 216.703 168.108 216.647 168.14C216.592 168.173 216.529 168.19 216.465 168.189H216.443ZM218.914 158.491C218.867 158.489 218.82 158.476 218.777 158.455C218.735 158.435 218.697 158.405 218.666 158.37C218.634 158.334 218.611 158.292 218.596 158.247C218.581 158.202 218.575 158.154 218.579 158.107C218.643 157.138 218.679 156.113 218.679 154.981C218.679 154.354 218.679 153.735 218.679 153.108C218.677 153.061 218.685 153.014 218.701 152.97C218.718 152.925 218.743 152.885 218.776 152.85C218.808 152.816 218.847 152.788 218.89 152.769C218.934 152.75 218.98 152.739 219.028 152.738C219.075 152.736 219.122 152.744 219.166 152.761C219.21 152.777 219.25 152.803 219.284 152.835C219.318 152.868 219.345 152.907 219.363 152.95C219.382 152.994 219.391 153.04 219.391 153.087C219.391 153.721 219.391 154.347 219.391 154.981C219.391 156.134 219.355 157.174 219.291 158.157C219.286 158.247 219.246 158.332 219.18 158.395C219.114 158.457 219.026 158.491 218.935 158.491H218.914ZM218.779 148.416C218.688 148.417 218.6 148.382 218.534 148.32C218.468 148.258 218.428 148.172 218.423 148.082C218.359 146.658 218.295 145.077 218.295 143.525V143.019C218.291 142.972 218.298 142.925 218.315 142.88C218.332 142.836 218.358 142.796 218.392 142.763C218.426 142.73 218.466 142.704 218.511 142.688C218.556 142.672 218.603 142.666 218.651 142.671C218.745 142.671 218.835 142.708 218.902 142.775C218.969 142.842 219.007 142.932 219.007 143.027V143.525C219.007 145.063 219.071 146.608 219.135 148.046C219.137 148.093 219.129 148.14 219.113 148.184C219.097 148.227 219.072 148.268 219.041 148.302C219.009 148.337 218.971 148.364 218.928 148.384C218.886 148.404 218.84 148.415 218.793 148.416H218.779ZM249.217 144.03C248.569 144.03 247.935 144.03 247.33 143.988C247.283 143.986 247.237 143.975 247.195 143.955C247.152 143.936 247.114 143.908 247.082 143.874C247.05 143.839 247.026 143.799 247.01 143.755C246.994 143.711 246.986 143.664 246.988 143.618C246.99 143.571 247.001 143.525 247.021 143.482C247.04 143.44 247.068 143.402 247.102 143.37C247.137 143.338 247.177 143.313 247.221 143.297C247.265 143.281 247.312 143.274 247.358 143.276C247.956 143.276 248.583 143.318 249.217 143.318C250.261 143.324 251.304 143.271 252.342 143.162C252.437 143.151 252.531 143.179 252.606 143.238C252.68 143.298 252.727 143.384 252.738 143.479C252.748 143.573 252.72 143.668 252.661 143.742C252.602 143.816 252.515 143.863 252.421 143.874C251.363 143.983 250.301 144.035 249.238 144.03H249.217ZM242.317 143.667C240.651 143.539 238.957 143.39 237.291 143.219C237.244 143.214 237.198 143.201 237.157 143.179C237.115 143.156 237.079 143.126 237.049 143.09C237.019 143.053 236.997 143.011 236.983 142.966C236.97 142.921 236.965 142.874 236.97 142.827C236.975 142.78 236.988 142.735 237.011 142.693C237.033 142.652 237.063 142.615 237.099 142.585C237.136 142.556 237.178 142.533 237.223 142.52C237.268 142.506 237.315 142.502 237.362 142.507C239.021 142.678 240.708 142.834 242.346 142.962C242.44 142.962 242.531 143 242.598 143.067C242.664 143.134 242.702 143.224 242.702 143.318C242.702 143.413 242.664 143.503 242.598 143.57C242.531 143.637 242.44 143.674 242.346 143.674L242.317 143.667ZM257.269 142.649C257.201 142.648 257.134 142.629 257.077 142.592C257.019 142.556 256.972 142.504 256.942 142.443C256.903 142.357 256.9 142.259 256.934 142.171C256.967 142.083 257.034 142.012 257.12 141.973C258.613 141.34 259.877 140.267 260.744 138.897C260.766 138.853 260.797 138.814 260.835 138.782C260.873 138.751 260.917 138.728 260.964 138.714C261.012 138.701 261.061 138.697 261.11 138.704C261.159 138.71 261.206 138.727 261.248 138.753C261.29 138.779 261.326 138.813 261.354 138.853C261.383 138.894 261.402 138.939 261.412 138.988C261.421 139.036 261.42 139.086 261.41 139.134C261.399 139.182 261.378 139.228 261.349 139.267C260.412 140.76 259.04 141.93 257.419 142.621C257.372 142.64 257.321 142.65 257.269 142.649ZM232.314 142.649H232.271C230.612 142.436 228.925 142.194 227.287 141.937C227.241 141.93 227.196 141.914 227.156 141.89C227.116 141.866 227.081 141.834 227.053 141.796C227.026 141.759 227.006 141.716 226.994 141.67C226.983 141.625 226.981 141.578 226.988 141.531C227.004 141.439 227.055 141.356 227.131 141.3C227.206 141.244 227.301 141.22 227.394 141.232C229.046 141.489 230.719 141.731 232.378 141.944C232.472 141.95 232.561 141.993 232.623 142.064C232.686 142.134 232.718 142.227 232.713 142.322C232.707 142.416 232.664 142.504 232.593 142.567C232.522 142.63 232.43 142.662 232.335 142.656L232.314 142.649ZM222.346 141.104H222.282C220.637 140.805 218.971 140.478 217.333 140.136C217.239 140.117 217.156 140.061 217.102 139.981C217.049 139.901 217.03 139.803 217.049 139.709C217.067 139.614 217.123 139.531 217.203 139.478C217.283 139.424 217.381 139.405 217.476 139.424C219.113 139.766 220.772 140.093 222.41 140.392C222.456 140.4 222.501 140.417 222.54 140.442C222.58 140.467 222.615 140.499 222.642 140.538C222.669 140.576 222.688 140.62 222.699 140.665C222.709 140.711 222.71 140.759 222.702 140.805C222.684 140.885 222.64 140.956 222.577 141.008C222.514 141.06 222.435 141.089 222.353 141.09L222.346 141.104ZM212.485 139.039H212.399C210.776 138.655 209.124 138.242 207.508 137.815C207.461 137.803 207.417 137.782 207.378 137.754C207.34 137.725 207.307 137.689 207.282 137.648C207.257 137.606 207.241 137.56 207.234 137.513C207.227 137.465 207.229 137.416 207.241 137.37C207.252 137.323 207.273 137.279 207.302 137.24C207.331 137.202 207.367 137.169 207.408 137.144C207.449 137.119 207.495 137.103 207.543 137.096C207.59 137.089 207.639 137.091 207.686 137.103C209.302 137.53 210.94 137.943 212.563 138.32C212.655 138.344 212.735 138.402 212.785 138.483C212.836 138.564 212.853 138.661 212.833 138.755C212.815 138.831 212.771 138.899 212.709 138.948C212.647 138.997 212.571 139.024 212.492 139.025L212.485 139.039ZM219.021 138.37H218.964C218.871 138.354 218.788 138.303 218.732 138.228C218.677 138.152 218.652 138.057 218.665 137.964C218.914 136.271 219.336 134.608 219.925 133.002C219.957 132.913 220.023 132.841 220.109 132.8C220.194 132.76 220.292 132.756 220.381 132.788C220.469 132.82 220.542 132.886 220.582 132.972C220.622 133.057 220.626 133.155 220.594 133.244C220.027 134.802 219.621 136.415 219.384 138.057C219.37 138.141 219.327 138.218 219.261 138.272C219.196 138.327 219.113 138.357 219.028 138.356L219.021 138.37ZM202.737 136.469C202.704 136.476 202.671 136.476 202.638 136.469C201.036 136.006 199.405 135.508 197.81 134.995C197.765 134.982 197.724 134.959 197.688 134.929C197.652 134.899 197.622 134.861 197.601 134.819C197.58 134.778 197.567 134.732 197.564 134.685C197.561 134.638 197.567 134.591 197.582 134.547C197.612 134.457 197.675 134.383 197.76 134.34C197.844 134.297 197.941 134.29 198.031 134.319C199.619 134.824 201.235 135.323 202.837 135.786C202.928 135.812 203.004 135.873 203.049 135.956C203.095 136.039 203.106 136.136 203.079 136.227C203.054 136.295 203.008 136.354 202.948 136.394C202.888 136.435 202.817 136.456 202.744 136.455L202.737 136.469ZM262.054 134.639C261.971 134.638 261.892 134.608 261.828 134.555C261.765 134.502 261.721 134.428 261.705 134.347C261.321 132.778 260.436 131.376 259.185 130.353C259.152 130.32 259.125 130.282 259.107 130.239C259.089 130.196 259.08 130.15 259.08 130.104C259.08 130.057 259.089 130.011 259.107 129.969C259.125 129.926 259.152 129.887 259.185 129.855C259.218 129.821 259.257 129.795 259.301 129.777C259.344 129.759 259.39 129.749 259.437 129.749C259.484 129.749 259.531 129.759 259.574 129.777C259.618 129.795 259.657 129.821 259.69 129.855C261.059 130.977 262.022 132.518 262.431 134.24C262.441 134.286 262.441 134.334 262.432 134.379C262.423 134.425 262.405 134.469 262.38 134.508C262.354 134.547 262.321 134.581 262.282 134.607C262.243 134.633 262.2 134.651 262.154 134.661L262.054 134.639ZM193.147 133.393C193.107 133.401 193.066 133.401 193.026 133.393C191.402 132.816 189.815 132.218 188.291 131.62C188.204 131.584 188.135 131.515 188.098 131.429C188.061 131.343 188.058 131.245 188.091 131.158C188.109 131.114 188.134 131.074 188.167 131.041C188.2 131.007 188.239 130.98 188.282 130.962C188.325 130.943 188.371 130.934 188.418 130.933C188.464 130.932 188.511 130.941 188.554 130.958C190.064 131.556 191.651 132.147 193.261 132.724C193.349 132.755 193.422 132.819 193.463 132.903C193.504 132.987 193.511 133.084 193.481 133.172C193.452 133.235 193.406 133.288 193.348 133.324C193.29 133.361 193.222 133.38 193.154 133.379L193.147 133.393ZM183.777 129.669C183.73 129.68 183.681 129.68 183.634 129.669C182.068 128.957 180.53 128.245 179.07 127.498C179.025 127.479 178.984 127.451 178.951 127.416C178.917 127.38 178.89 127.339 178.873 127.293C178.856 127.247 178.849 127.198 178.852 127.149C178.855 127.1 178.868 127.052 178.89 127.009C178.912 126.965 178.943 126.926 178.98 126.895C179.018 126.864 179.062 126.841 179.109 126.827C179.156 126.814 179.205 126.81 179.254 126.816C179.302 126.823 179.349 126.839 179.391 126.864C180.815 127.576 182.367 128.288 183.926 129C184.021 129.02 184.103 129.077 184.156 129.157C184.209 129.238 184.227 129.337 184.208 129.431C184.188 129.525 184.131 129.608 184.05 129.661C183.97 129.714 183.871 129.732 183.777 129.712V129.669ZM222.595 129.05C222.519 129.05 222.445 129.028 222.381 128.986C222.306 128.929 222.256 128.845 222.243 128.751C222.229 128.658 222.254 128.563 222.31 128.488C223.241 127.21 224.385 126.102 225.692 125.212L226.062 124.977C226.102 124.953 226.146 124.936 226.193 124.928C226.239 124.921 226.286 124.922 226.332 124.933C226.377 124.943 226.42 124.963 226.458 124.99C226.497 125.017 226.529 125.052 226.554 125.091C226.578 125.131 226.595 125.175 226.603 125.221C226.611 125.268 226.609 125.315 226.599 125.361C226.588 125.406 226.568 125.449 226.541 125.487C226.514 125.525 226.48 125.558 226.44 125.583L226.091 125.803C224.851 126.647 223.765 127.697 222.88 128.908C222.846 128.948 222.803 128.98 222.755 129.002C222.707 129.024 222.655 129.036 222.602 129.036L222.595 129.05ZM255.254 127.626C255.195 127.625 255.136 127.611 255.084 127.583C254.485 127.263 253.902 126.964 253.346 126.686C252.442 126.245 251.509 125.832 250.569 125.462C250.523 125.447 250.479 125.424 250.442 125.392C250.405 125.36 250.374 125.321 250.353 125.277C250.332 125.233 250.319 125.185 250.317 125.136C250.315 125.087 250.323 125.038 250.341 124.992C250.359 124.947 250.386 124.905 250.42 124.87C250.455 124.836 250.496 124.808 250.541 124.79C250.587 124.772 250.636 124.764 250.685 124.765C250.733 124.767 250.782 124.778 250.826 124.799C251.787 125.17 252.741 125.597 253.674 126.052C254.229 126.33 254.827 126.629 255.432 126.957C255.514 127.003 255.575 127.08 255.601 127.17C255.628 127.26 255.619 127.357 255.575 127.441C255.543 127.495 255.497 127.539 255.442 127.569C255.387 127.6 255.324 127.614 255.262 127.612L255.254 127.626ZM174.798 125.098C174.735 125.1 174.674 125.082 174.62 125.049C173.132 124.187 171.687 123.29 170.348 122.371C170.279 122.316 170.234 122.236 170.22 122.149C170.206 122.061 170.226 121.972 170.275 121.898C170.324 121.824 170.399 121.771 170.485 121.749C170.571 121.727 170.662 121.739 170.74 121.78C172.093 122.685 173.524 123.582 175.012 124.436C175.079 124.476 175.131 124.536 175.16 124.608C175.189 124.68 175.194 124.76 175.174 124.835C175.154 124.91 175.11 124.976 175.048 125.024C174.987 125.071 174.912 125.098 174.834 125.098H174.798ZM245.892 123.981H245.806C244.187 123.597 242.543 123.325 240.886 123.169C240.793 123.16 240.707 123.114 240.647 123.042C240.587 122.97 240.558 122.878 240.566 122.784C240.577 122.691 240.624 122.605 240.697 122.545C240.77 122.485 240.863 122.456 240.957 122.464C242.636 122.623 244.301 122.899 245.941 123.29C246.036 123.3 246.122 123.348 246.182 123.422C246.241 123.496 246.269 123.591 246.258 123.685C246.248 123.78 246.2 123.866 246.126 123.925C246.052 123.985 245.958 124.012 245.863 124.002L245.892 123.981ZM230.904 123.753C230.823 123.752 230.745 123.724 230.682 123.674C230.619 123.623 230.574 123.554 230.555 123.475C230.534 123.383 230.549 123.287 230.599 123.207C230.648 123.127 230.727 123.07 230.819 123.048C232.069 122.752 233.34 122.55 234.621 122.443C235.034 122.443 235.454 122.379 235.867 122.357C235.914 122.352 235.962 122.357 236.007 122.372C236.052 122.386 236.094 122.41 236.129 122.441C236.165 122.473 236.193 122.511 236.213 122.555C236.233 122.598 236.243 122.644 236.244 122.692C236.248 122.785 236.215 122.876 236.152 122.945C236.09 123.015 236.003 123.057 235.909 123.062C235.496 123.062 235.091 123.119 234.685 123.155C233.44 123.258 232.205 123.453 230.989 123.738L230.904 123.753ZM166.447 119.481C166.367 119.482 166.29 119.457 166.226 119.41C164.873 118.349 163.577 117.238 162.374 116.12C162.341 116.087 162.314 116.048 162.296 116.004C162.278 115.961 162.269 115.914 162.269 115.867C162.269 115.82 162.278 115.774 162.296 115.73C162.314 115.687 162.341 115.648 162.374 115.615C162.442 115.549 162.532 115.512 162.627 115.512C162.721 115.512 162.812 115.549 162.88 115.615C164.069 116.725 165.35 117.822 166.689 118.868C166.762 118.927 166.809 119.013 166.82 119.106C166.831 119.199 166.804 119.293 166.746 119.367C166.708 119.404 166.661 119.432 166.611 119.448C166.56 119.464 166.506 119.468 166.454 119.459L166.447 119.481ZM159.099 112.61C159.048 112.609 158.997 112.598 158.951 112.578C158.904 112.557 158.863 112.527 158.828 112.489C157.71 111.217 156.666 109.881 155.703 108.487C155.649 108.41 155.628 108.314 155.644 108.221C155.66 108.128 155.712 108.045 155.788 107.989C155.867 107.938 155.963 107.919 156.056 107.937C156.148 107.954 156.231 108.006 156.286 108.082C157.248 109.447 158.289 110.755 159.405 111.998C159.47 112.064 159.507 112.154 159.507 112.247C159.507 112.34 159.47 112.429 159.405 112.496C159.366 112.533 159.318 112.561 159.266 112.577C159.214 112.593 159.16 112.597 159.106 112.589L159.099 112.61ZM153.403 104.329C153.337 104.329 153.273 104.31 153.217 104.275C153.162 104.24 153.118 104.189 153.09 104.13C152.309 102.625 151.636 101.066 151.075 99.4664C151.045 99.3767 151.051 99.2789 151.092 99.1938C151.134 99.1087 151.206 99.043 151.295 99.0107C151.384 98.9812 151.481 98.9878 151.565 99.0291C151.649 99.0704 151.713 99.1431 151.744 99.2314C152.294 100.802 152.956 102.332 153.723 103.81C153.765 103.894 153.773 103.991 153.743 104.08C153.714 104.17 153.65 104.244 153.567 104.287C153.515 104.308 153.458 104.315 153.403 104.308V104.329ZM150.149 94.8171C150.064 94.8179 149.983 94.7881 149.918 94.7331C149.854 94.6781 149.812 94.6017 149.8 94.518C149.729 94.1407 149.672 93.7633 149.615 93.3788C149.441 92.1237 149.353 90.8581 149.352 89.591V89.4415C149.352 89.347 149.389 89.2565 149.456 89.1897C149.523 89.123 149.613 89.0855 149.708 89.0855C149.802 89.0855 149.893 89.123 149.959 89.1897C150.026 89.2565 150.064 89.347 150.064 89.4415V89.5839C150.063 90.8177 150.148 92.0501 150.32 93.272C150.377 93.6494 150.434 94.0196 150.498 94.3899C150.515 94.4823 150.494 94.5777 150.441 94.655C150.387 94.7324 150.305 94.7855 150.213 94.8028L150.149 94.8171ZM150.185 84.7921H150.121C150.028 84.7748 149.946 84.7217 149.893 84.6443C149.84 84.5669 149.819 84.4716 149.836 84.3791C150.145 82.7066 150.595 81.0632 151.181 79.4663C151.217 79.3782 151.284 79.307 151.37 79.2672C151.456 79.2275 151.554 79.2223 151.644 79.2527C151.732 79.2863 151.802 79.3529 151.841 79.4382C151.88 79.5235 151.883 79.6206 151.851 79.7084C151.275 81.2674 150.834 82.8729 150.533 84.5073C150.518 84.5948 150.469 84.6731 150.398 84.726C150.326 84.7789 150.237 84.8026 150.149 84.7921H150.185ZM153.659 75.3866C153.597 75.3834 153.536 75.3664 153.481 75.3367C153.4 75.2878 153.341 75.209 153.317 75.1172C153.293 75.0254 153.306 74.9279 153.353 74.8455C154.209 73.3745 155.198 71.985 156.308 70.6945C156.372 70.6363 156.456 70.6037 156.543 70.6029C156.63 70.602 156.714 70.6329 156.779 70.6898C156.845 70.7467 156.888 70.8256 156.899 70.9117C156.911 70.9978 156.89 71.0852 156.842 71.1573C155.775 72.4212 154.822 73.7769 153.994 75.2086C153.959 75.2703 153.906 75.3203 153.843 75.352C153.78 75.3837 153.708 75.3957 153.638 75.3866H153.659ZM160.217 67.8038C160.143 67.8034 160.072 67.7802 160.012 67.7374C159.952 67.6946 159.907 67.6343 159.883 67.5649C159.858 67.4954 159.856 67.4202 159.877 67.3495C159.897 67.2788 159.939 67.2161 159.996 67.1701C161.341 66.1255 162.784 65.2124 164.304 64.4431C164.389 64.4006 164.487 64.3937 164.577 64.4237C164.667 64.4537 164.742 64.5184 164.784 64.6033C164.827 64.6883 164.834 64.7867 164.804 64.8768C164.774 64.9669 164.709 65.0414 164.624 65.0839C163.146 65.833 161.742 66.7198 160.43 67.7326C160.363 67.784 160.28 67.8093 160.195 67.8038H160.217ZM203.948 63.368C202.252 63.3308 200.561 63.1809 198.885 62.9195C198.791 62.9062 198.706 62.8561 198.648 62.7799C198.591 62.7038 198.566 62.608 198.579 62.5136C198.592 62.4192 198.643 62.3339 198.719 62.2765C198.795 62.2191 198.891 62.1942 198.985 62.2075C200.635 62.4668 202.3 62.6143 203.969 62.6489C204.063 62.6489 204.154 62.6864 204.221 62.7532C204.288 62.8199 204.325 62.9105 204.325 63.0049C204.325 63.0993 204.288 63.1899 204.221 63.2566C204.154 63.3234 204.063 63.3609 203.969 63.3609L203.948 63.368ZM169.102 63.1829C169.056 63.1904 169.008 63.1886 168.962 63.1776C168.916 63.1666 168.872 63.1467 168.834 63.1189C168.796 63.0911 168.763 63.0561 168.738 63.0158C168.714 62.9754 168.697 62.9306 168.689 62.8839C168.682 62.8371 168.684 62.7893 168.695 62.7433C168.706 62.6972 168.726 62.6538 168.753 62.6154C168.781 62.5771 168.816 62.5446 168.857 62.5198C168.897 62.495 168.942 62.4784 168.989 62.4709C170.6 61.9479 172.24 61.52 173.901 61.1893C173.948 61.18 173.995 61.18 174.042 61.1894C174.088 61.1987 174.132 61.2172 174.171 61.2437C174.21 61.2702 174.244 61.3042 174.269 61.3438C174.295 61.3833 174.313 61.4276 174.321 61.4741C174.332 61.5195 174.333 61.5666 174.324 61.6125C174.316 61.6583 174.298 61.7019 174.272 61.7405C174.246 61.7792 174.212 61.8122 174.173 61.8374C174.134 61.8626 174.09 61.8795 174.044 61.8871C172.409 62.214 170.795 62.6348 169.209 63.1473L169.102 63.1829ZM193.965 62.0651H193.901C192.371 61.7803 190.64 61.4599 188.917 61.2178C188.825 61.2037 188.742 61.154 188.686 61.0795C188.631 61.0049 188.606 60.9114 188.618 60.8191C188.624 60.7724 188.638 60.7273 188.661 60.6864C188.684 60.6455 188.715 60.6097 188.753 60.5812C188.79 60.5526 188.832 60.5318 188.878 60.5201C188.923 60.5083 188.971 60.5059 189.017 60.5129C190.726 60.755 192.463 61.0825 194.001 61.3673C194.093 61.3846 194.175 61.4377 194.229 61.5151C194.282 61.5924 194.303 61.6878 194.286 61.7803C194.274 61.8595 194.236 61.9325 194.178 61.9879C194.12 62.0433 194.045 62.0779 193.965 62.0864V62.0651ZM178.957 61.1466C178.862 61.1522 178.769 61.1202 178.699 61.0574C178.628 60.9947 178.585 60.9064 178.579 60.8119C178.573 60.7175 178.606 60.6247 178.668 60.5539C178.731 60.4832 178.819 60.4402 178.914 60.4346C179.818 60.3349 180.786 60.2423 181.762 60.164C182.388 60.1142 183.051 60.0857 183.727 60.0857H183.962C184.009 60.0866 184.055 60.0967 184.098 60.1155C184.14 60.1343 184.179 60.1613 184.212 60.195C184.244 60.2287 184.269 60.2685 184.286 60.312C184.303 60.3556 184.312 60.4021 184.311 60.4488C184.306 60.5408 184.266 60.6276 184.2 60.6921C184.134 60.7567 184.047 60.7943 183.955 60.7977H183.727C183.072 60.7977 182.431 60.7977 181.812 60.8689C180.829 60.9472 179.875 61.0398 178.964 61.1466H178.957Z" fill="white"/>
<path d="M177.079 185.903C176.232 185.868 175.392 185.804 174.58 185.725C174.534 185.722 174.488 185.709 174.447 185.687C174.405 185.666 174.369 185.637 174.339 185.601C174.309 185.565 174.286 185.523 174.273 185.479C174.259 185.434 174.255 185.387 174.26 185.341C174.262 185.294 174.274 185.248 174.296 185.206C174.317 185.164 174.346 185.127 174.382 185.097C174.418 185.067 174.46 185.044 174.505 185.031C174.55 185.018 174.598 185.014 174.644 185.02C175.449 185.099 176.275 185.156 177.115 185.191C177.209 185.191 177.3 185.229 177.367 185.295C177.433 185.362 177.471 185.453 177.471 185.547C177.471 185.642 177.433 185.732 177.367 185.799C177.3 185.866 177.209 185.903 177.115 185.903H177.079Z" fill="white"/>
</g>
<path d="M243.314 36.4765L218.174 35.4447C216.908 35.3928 215.841 36.3763 215.789 37.6414L215.322 49.0238C215.27 50.289 216.253 51.3566 217.518 51.4086L242.659 52.4403C243.924 52.4922 244.992 51.5087 245.044 50.2436L245.511 38.8612C245.563 37.596 244.58 36.5284 243.314 36.4765Z" fill="#AB58E7"/>
<path opacity="0.8" d="M243.314 36.4765L218.174 35.4447C216.908 35.3928 215.841 36.3763 215.789 37.6414L215.322 49.0238C215.27 50.289 216.253 51.3566 217.518 51.4086L242.659 52.4403C243.924 52.4922 244.992 51.5087 245.044 50.2436L245.511 38.8612C245.563 37.596 244.58 36.5284 243.314 36.4765Z" fill="white"/>
<path opacity="0.4" d="M230.3 46.992C230.227 46.9917 230.155 46.9694 230.094 46.9279L217.078 37.971C217.039 37.9446 217.006 37.9106 216.98 37.8712C216.954 37.8317 216.936 37.7875 216.928 37.7411C216.919 37.6948 216.92 37.6472 216.93 37.601C216.94 37.5549 216.959 37.5113 216.986 37.4726C217.04 37.3972 217.122 37.3455 217.213 37.3283C217.304 37.3111 217.399 37.3296 217.477 37.38L230.293 46.2231L243.821 38.4623C243.903 38.4161 244 38.4045 244.091 38.4298C244.182 38.4552 244.259 38.5155 244.305 38.5975C244.352 38.6789 244.365 38.7753 244.341 38.866C244.317 38.9566 244.258 39.0342 244.177 39.0817L230.492 46.9137C230.438 46.9595 230.371 46.987 230.3 46.992Z" fill="#AB58E7"/>
<path opacity="0.4" d="M243.514 50.4737C243.443 50.4743 243.373 50.4518 243.315 50.4097L235.867 45.2334C235.828 45.207 235.795 45.1731 235.769 45.1336C235.743 45.0941 235.726 45.0499 235.717 45.0036C235.708 44.9572 235.709 44.9096 235.719 44.8635C235.729 44.8174 235.748 44.7737 235.775 44.735C235.831 44.6588 235.914 44.6072 236.007 44.5913C236.1 44.5753 236.195 44.5962 236.273 44.6496L243.721 49.8401C243.759 49.8664 243.792 49.9001 243.817 49.9392C243.842 49.9783 243.859 50.022 243.867 50.0677C243.875 50.1135 243.873 50.1604 243.863 50.2056C243.853 50.2509 243.833 50.2936 243.806 50.3313C243.772 50.3765 243.728 50.413 243.677 50.4378C243.627 50.4625 243.571 50.4749 243.514 50.4737Z" fill="#AB58E7"/>
<path opacity="0.4" d="M216.849 49.3772C216.769 49.381 216.689 49.3573 216.624 49.3099C216.558 49.2625 216.511 49.1944 216.489 49.1165C216.468 49.0387 216.473 48.9559 216.505 48.8816C216.537 48.8074 216.593 48.7461 216.664 48.7079L224.496 44.1654C224.577 44.1291 224.667 44.1239 224.751 44.1507C224.835 44.1776 224.906 44.2347 224.951 44.3109C224.995 44.387 225.009 44.477 224.991 44.5632C224.973 44.6494 224.923 44.7259 224.852 44.7777L217.02 49.3274C216.969 49.3591 216.91 49.3763 216.849 49.3772Z" fill="#AB58E7"/>
<path d="M268.502 42.5776L218.399 54.0052L211.977 57.9711L268.502 42.5776Z" fill="#AB58E7"/>
<path opacity="0.2" d="M218.399 54.0052L211.977 57.9711L268.502 42.5776" fill="black"/>
<path d="M268.502 42.5776L218.398 54.0052L223.112 57.4727L268.502 42.5776Z" fill="#AB58E7"/>
<path d="M268.499 42.5776L225.544 51.3637L223.109 57.4727L268.499 42.5776Z" fill="#AB58E7"/>
<path opacity="0.2" d="M268.499 42.5776L225.544 51.3637L223.109 57.4727L268.499 42.5776Z" fill="black"/>
<path d="M268.502 42.5776L225.547 51.3637L239.075 56.2694L268.502 42.5776Z" fill="#AB58E7"/>
</g>
<defs>
<clipPath id="clip0_210_13221">
<rect width="298" height="319" fill="white"/>
</clipPath>
</defs>
</svg>
