<svg width="339" height="293" viewBox="0 0 339 293" fill="none" xmlns="http://www.w3.org/2000/svg">
<g clip-path="url(#clip0_64_7512)">
<path d="M365.077 258.567H-30.0278V258.764H365.077V258.567Z" fill="#EBEBEB"/>
<path d="M325.488 271.274H299.316V271.471H325.488V271.274Z" fill="#EBEBEB"/>
<path d="M231.705 273.422H224.838V273.619H231.705V273.422Z" fill="#EBEBEB"/>
<path d="M298.525 263.945H283.361V264.142H298.525V263.945Z" fill="#EBEBEB"/>
<path d="M45.5559 265.272H11.4268V265.469H45.5559V265.272Z" fill="#EBEBEB"/>
<path d="M57.5987 265.272H52.5967V265.469H57.5987V265.272Z" fill="#EBEBEB"/>
<path d="M147.888 268.604H73.8608V268.802H147.888V268.604Z" fill="#EBEBEB"/>
<path d="M157.252 223.343H4.67021C3.4749 223.341 2.32926 222.865 1.48478 222.02C0.64031 221.174 0.166014 220.029 0.166016 218.834V4.47003C0.176421 3.28225 0.655309 2.14654 1.49866 1.30959C2.34201 0.472637 3.48171 0.00203472 4.67021 0H157.252C158.449 0 159.596 0.475108 160.442 1.32081C161.289 2.1665 161.764 3.31352 161.764 4.50951V218.834C161.764 220.03 161.289 221.177 160.442 222.023C159.596 222.868 158.449 223.343 157.252 223.343ZM4.67021 0.157952C3.52729 0.160044 2.4319 0.615272 1.62448 1.42372C0.817049 2.23216 0.363566 3.32776 0.363568 4.47003V218.834C0.363566 219.976 0.817049 221.072 1.62448 221.88C2.4319 222.689 3.52729 223.144 4.67021 223.146H157.252C158.395 223.144 159.492 222.689 160.3 221.881C161.109 221.072 161.564 219.977 161.566 218.834V4.47003C161.564 3.32703 161.109 2.23145 160.3 1.42323C159.492 0.615016 158.395 0.16004 157.252 0.157952H4.67021Z" fill="#EBEBEB"/>
<path d="M327.392 223.343H174.803C173.607 223.341 172.46 222.866 171.614 222.02C170.769 221.175 170.293 220.029 170.291 218.834V4.47003C170.303 3.28153 170.784 2.14583 171.628 1.3091C172.473 0.472361 173.613 0.00201253 174.803 0H327.392C328.579 0.00411029 329.717 0.475631 330.559 1.31236C331.4 2.14909 331.878 3.28362 331.888 4.47003V218.834C331.888 220.027 331.415 221.172 330.572 222.017C329.73 222.862 328.586 223.339 327.392 223.343ZM174.803 0.157952C173.659 0.16004 172.563 0.615016 171.754 1.42323C170.945 2.23145 170.49 3.32703 170.488 4.47003V218.834C170.49 219.977 170.945 221.072 171.754 221.881C172.563 222.689 173.659 223.144 174.803 223.146H327.392C328.536 223.144 329.632 222.689 330.441 221.881C331.249 221.072 331.705 219.977 331.707 218.834V4.47003C331.705 3.32703 331.249 2.23145 330.441 1.42323C329.632 0.615016 328.536 0.16004 327.392 0.157952H174.803Z" fill="#EBEBEB"/>
<path d="M222.887 8.48987H168.165V199.382H222.887V8.48987Z" fill="#FAFAFA"/>
<path d="M199.173 8.48987H195.885L176.249 199.382H179.536L199.173 8.48987Z" fill="#F5F5F5"/>
<path d="M223.479 9.22437H167.809V10.9065H223.479V9.22437Z" fill="#E0E0E0"/>
<path d="M223.479 197.708H167.809V201.309H223.479V197.708Z" fill="#EBEBEB"/>
<path d="M222.554 201.151H169.95V201.309H222.554V201.151Z" fill="#EBEBEB"/>
<path d="M169.16 9.22429H221.757V201.151H224.91V6.86292H166.007V201.151H169.16V9.22429Z" fill="#EBEBEB"/>
<path d="M287.123 8.48987H230.82V199.382H287.123V8.48987Z" fill="#FAFAFA"/>
<path d="M281.615 8.48987H263.67L244.025 199.382H261.978L281.615 8.48987Z" fill="#F5F5F5"/>
<path d="M286.127 9.22437H230.457V10.9065H286.127V9.22437Z" fill="#E0E0E0"/>
<path d="M286.127 197.708H230.457V201.309H286.127V197.708Z" fill="#EBEBEB"/>
<path d="M232.599 9.22429H285.203V201.151H288.356V6.86292H229.454V201.151H232.599V9.22429Z" fill="#EBEBEB"/>
<path d="M285.203 201.151H232.599V201.309H285.203V201.151Z" fill="#EBEBEB"/>
<path d="M237.885 173.842H242.974H244.38H245.779V176.637H244.38H242.974H237.885V173.842Z" fill="#E6E6E6"/>
<path d="M237.885 179.267H242.974H244.38H245.779V182.071H244.38H242.974H237.885V179.267Z" fill="#FAFAFA"/>
<path d="M237.885 184.693H242.974H244.38H245.779V187.496H244.38H242.974H237.885V184.693Z" fill="#E6E6E6"/>
<path d="M237.885 190.118H242.974H245.139H245.779V192.922H245.139H242.974H237.885V190.118Z" fill="#FAFAFA"/>
<path d="M248.071 173.842H253.168H254.566H255.965V176.637H254.566H253.168H248.071V173.842Z" fill="#FAFAFA"/>
<path d="M248.071 179.267H253.168H255.143H255.965V182.071H255.143H253.168H248.071V179.267Z" fill="#FAFAFA"/>
<path d="M248.071 184.693H253.168H254.566H255.965V187.496H254.566H253.168H248.071V184.693Z" fill="#E6E6E6"/>
<path d="M248.071 190.118H253.168H254.566H255.965V192.922H254.566H253.168H248.071V190.118Z" fill="#FAFAFA"/>
<path d="M320.485 19.436V193.372L299.545 214.301H178.319V19.436H320.485Z" fill="#AB58E7"/>
<path opacity="0.8" d="M320.485 19.436V193.372L299.545 214.301H178.319V19.436H320.485Z" fill="white"/>
<path opacity="0.2" d="M299.545 214.301V193.988H320.485L299.956 214.506" fill="black"/>
<path opacity="0.1" d="M232.116 36.329H192.906C192.355 36.329 191.826 36.1102 191.436 35.7207C191.047 35.3311 190.828 34.8028 190.828 34.252C190.827 33.9785 190.88 33.7076 190.984 33.4547C191.088 33.2018 191.24 32.9718 191.434 32.7781C191.627 32.5844 191.856 32.4307 192.109 32.3259C192.361 32.221 192.632 32.167 192.906 32.167H232.116C232.668 32.1691 233.197 32.3897 233.586 32.7804C233.976 33.1712 234.194 33.7004 234.194 34.252C234.194 34.8028 233.975 35.3311 233.586 35.7207C233.196 36.1102 232.667 36.329 232.116 36.329Z" fill="black"/>
<path opacity="0.1" d="M303.235 53.1823H208.71C208.437 53.1823 208.166 53.1283 207.913 53.0234C207.66 52.9185 207.431 52.7649 207.238 52.5711C207.045 52.3774 206.892 52.1475 206.788 51.8946C206.684 51.6417 206.631 51.3708 206.632 51.0973C206.632 50.5465 206.851 50.0181 207.241 49.6286C207.63 49.2391 208.159 49.0203 208.71 49.0203H303.235C303.786 49.0203 304.315 49.2391 304.705 49.6286C305.094 50.0181 305.313 50.5465 305.313 51.0973C305.313 51.6489 305.095 52.178 304.705 52.5688C304.316 52.9596 303.787 53.1802 303.235 53.1823Z" fill="black"/>
<path opacity="0.1" d="M303.235 61.3722H192.906C192.355 61.3722 191.826 61.1534 191.436 60.7639C191.047 60.3743 190.828 59.846 190.828 59.2952C190.827 59.0217 190.88 58.7508 190.984 58.4979C191.088 58.245 191.24 58.0151 191.434 57.8213C191.627 57.6276 191.856 57.4739 192.109 57.3691C192.361 57.2642 192.632 57.2102 192.906 57.2102H303.235C303.787 57.2123 304.316 57.4329 304.705 57.8237C305.095 58.2144 305.313 58.7436 305.313 59.2952C305.313 59.846 305.094 60.3743 304.705 60.7639C304.315 61.1534 303.786 61.3722 303.235 61.3722Z" fill="black"/>
<path opacity="0.1" d="M303.235 70.6281H192.906C192.632 70.6281 192.361 70.5741 192.109 70.4692C191.856 70.3643 191.627 70.2106 191.434 70.0169C191.24 69.8232 191.088 69.5933 190.984 69.3404C190.88 69.0875 190.827 68.8165 190.828 68.5431C190.828 67.9922 191.047 67.4639 191.436 67.0744C191.826 66.6849 192.355 66.4661 192.906 66.4661H303.235C303.786 66.4661 304.315 66.6849 304.705 67.0744C305.094 67.4639 305.313 67.9922 305.313 68.5431C305.313 69.0947 305.095 69.6238 304.705 70.0146C304.316 70.4054 303.787 70.626 303.235 70.6281Z" fill="black"/>
<path opacity="0.1" d="M303.235 79.8763H192.906C192.355 79.8763 191.826 79.6575 191.436 79.2679C191.047 78.8784 190.828 78.3501 190.828 77.7992C190.828 77.2484 191.047 76.7201 191.436 76.3305C191.826 75.941 192.355 75.7222 192.906 75.7222H303.235C303.786 75.7222 304.315 75.941 304.705 76.3305C305.094 76.7201 305.313 77.2484 305.313 77.7992C305.313 78.3501 305.094 78.8784 304.705 79.2679C304.315 79.6575 303.786 79.8763 303.235 79.8763Z" fill="black"/>
<path opacity="0.1" d="M303.235 89.1322H192.906C192.355 89.1322 191.826 88.9133 191.436 88.5238C191.047 88.1343 190.828 87.606 190.828 87.0551C190.827 86.782 190.88 86.5115 190.984 86.259C191.088 86.0065 191.241 85.7771 191.434 85.5841C191.627 85.391 191.857 85.238 192.109 85.134C192.362 85.03 192.633 84.977 192.906 84.978H303.235C303.786 84.978 304.315 85.1969 304.705 85.5864C305.094 85.9759 305.313 86.5042 305.313 87.0551C305.313 87.606 305.094 88.1343 304.705 88.5238C304.315 88.9133 303.786 89.1322 303.235 89.1322Z" fill="black"/>
<path opacity="0.1" d="M303.235 98.3881H192.906C192.355 98.3881 191.826 98.1693 191.436 97.7797C191.047 97.3902 190.828 96.8619 190.828 96.311C190.827 96.0376 190.88 95.7667 190.984 95.5138C191.088 95.2608 191.24 95.0309 191.434 94.8372C191.627 94.6435 191.856 94.4898 192.109 94.3849C192.361 94.2801 192.632 94.2261 192.906 94.2261H303.235C303.787 94.2282 304.316 94.4487 304.705 94.8395C305.095 95.2303 305.313 95.7594 305.313 96.311C305.313 96.8619 305.094 97.3902 304.705 97.7797C304.315 98.1693 303.786 98.3881 303.235 98.3881Z" fill="black"/>
<path opacity="0.1" d="M303.243 103.482H192.906C191.758 103.482 190.828 104.412 190.828 105.559V105.567C190.828 106.714 191.758 107.644 192.906 107.644H303.243C304.391 107.644 305.321 106.714 305.321 105.567V105.559C305.321 104.412 304.391 103.482 303.243 103.482Z" fill="black"/>
<path opacity="0.1" d="M303.235 116.884H192.906C192.355 116.884 191.826 116.665 191.436 116.276C191.047 115.886 190.828 115.358 190.828 114.807C190.828 114.256 191.047 113.728 191.436 113.338C191.826 112.949 192.355 112.73 192.906 112.73H303.235C303.786 112.73 304.315 112.949 304.705 113.338C305.094 113.728 305.313 114.256 305.313 114.807C305.313 115.358 305.094 115.886 304.705 116.276C304.315 116.665 303.786 116.884 303.235 116.884Z" fill="black"/>
<path opacity="0.1" d="M303.235 126.148H192.906C192.355 126.148 191.826 125.929 191.436 125.54C191.047 125.15 190.828 124.622 190.828 124.071C190.827 123.798 190.88 123.527 190.984 123.275C191.088 123.022 191.241 122.793 191.434 122.6C191.627 122.407 191.857 122.254 192.109 122.15C192.362 122.046 192.633 121.993 192.906 121.994H303.235C303.786 121.994 304.315 122.213 304.705 122.602C305.094 122.992 305.313 123.52 305.313 124.071C305.313 124.622 305.094 125.15 304.705 125.54C304.315 125.929 303.786 126.148 303.235 126.148Z" fill="black"/>
<path opacity="0.1" d="M303.235 135.404H192.906C192.355 135.404 191.826 135.185 191.436 134.796C191.047 134.406 190.828 133.878 190.828 133.327C190.827 133.053 190.88 132.783 190.984 132.53C191.088 132.277 191.24 132.047 191.434 131.853C191.627 131.659 191.856 131.506 192.109 131.401C192.361 131.296 192.632 131.242 192.906 131.242H303.235C303.787 131.244 304.316 131.465 304.705 131.855C305.095 132.246 305.313 132.775 305.313 133.327C305.313 133.878 305.094 134.406 304.705 134.796C304.315 135.185 303.786 135.404 303.235 135.404Z" fill="black"/>
<path opacity="0.1" d="M303.235 144.66H192.906C192.632 144.66 192.361 144.606 192.109 144.501C191.856 144.396 191.627 144.243 191.434 144.049C191.24 143.855 191.088 143.625 190.984 143.372C190.88 143.119 190.827 142.849 190.828 142.575C190.828 142.024 191.047 141.496 191.436 141.106C191.826 140.717 192.355 140.498 192.906 140.498H303.235C303.786 140.498 304.315 140.717 304.705 141.106C305.094 141.496 305.313 142.024 305.313 142.575C305.313 143.127 305.095 143.656 304.705 144.047C304.316 144.437 303.787 144.658 303.235 144.66Z" fill="black"/>
<path opacity="0.1" d="M240.018 153.908H192.906C192.355 153.908 191.826 153.689 191.436 153.3C191.047 152.91 190.828 152.382 190.828 151.831C190.828 151.28 191.047 150.752 191.436 150.362C191.826 149.973 192.355 149.754 192.906 149.754H240.018C240.569 149.754 241.098 149.973 241.488 150.362C241.878 150.752 242.096 151.28 242.096 151.831C242.096 152.382 241.878 152.91 241.488 153.3C241.098 153.689 240.569 153.908 240.018 153.908Z" fill="black"/>
<path d="M294.748 62.0592L294.598 61.9328C294.171 61.609 293.927 61.7196 293.729 61.0957C293.587 60.6455 293.729 60.14 293.563 59.6741C293.187 58.872 292.756 58.0963 292.275 57.3522L290.331 53.8536C289.897 53.0789 289.174 52.5076 288.319 52.2648C287.464 52.0221 286.548 52.1276 285.772 52.5584L267.873 62.5251C267.802 63.1253 267.304 63.536 267.202 64.1046C267.166 64.2727 267.175 64.447 267.228 64.6104C267.281 64.7738 267.375 64.9207 267.502 65.0366C267.301 65.0326 267.107 64.9633 266.949 64.8391C265.882 64.2468 265.598 63.7729 264.499 64.3731C264.025 64.6259 263.559 64.8944 263.093 65.1629L258.351 67.8086L243.495 76.0774L226.111 85.7756L211.626 93.839C209.651 94.9368 207.256 95.9003 205.494 97.2981C205.984 97.5509 206.071 97.9378 205.636 98.3169L204.846 99.0356C204.846 99.233 205.131 99.233 205.312 99.1541L206.292 98.7355C205.612 99.5994 204.792 100.344 203.866 100.939C202.313 101.84 200.643 102.526 198.904 102.976L199.741 101.926C199.805 101.839 199.884 101.729 199.828 101.626C199.773 101.523 199.67 101.515 199.575 101.508C199.157 101.46 198.738 101.508 198.43 101.2C195.727 102.779 192.898 104.28 190.148 105.812C189.373 106.246 188.802 106.969 188.559 107.823C188.316 108.677 188.421 109.592 188.852 110.369L206.901 142.749C207.114 143.133 207.401 143.471 207.746 143.744C208.09 144.017 208.485 144.22 208.908 144.34C209.33 144.46 209.773 144.496 210.21 144.445C210.646 144.394 211.068 144.258 211.452 144.044L216.201 141.367C216.201 140.806 216.644 140.182 216.312 139.669C216.265 139.606 216.235 139.533 216.225 139.455C216.225 139.353 216.32 139.274 216.407 139.218C216.894 138.91 217.451 138.73 218.027 138.697C218.224 138.697 218.485 138.784 218.454 138.974C218.454 138.8 219.473 138.437 219.639 138.381C219.718 138.808 219.426 139.266 219.923 139.353C220.421 139.44 221.18 138.563 221.504 138.405L226.245 135.759L241.259 127.412L257.727 118.243L268.671 112.146C269.067 111.917 269.533 111.648 269.912 111.458C270.049 110.734 270.402 110.068 270.924 109.547C271.714 109.002 272.962 109.603 273.618 108.829C273.745 108.679 273.824 108.497 273.934 108.339C274.155 108.082 274.423 107.87 274.724 107.715C274.915 107.565 275.146 107.474 275.388 107.454C275.625 107.454 275.878 107.652 275.847 107.889C277.474 107.51 278.944 106.412 280.382 105.598C280.904 105.306 285.479 103.158 285.463 102.819C285.4 101.768 286.04 100.868 286.009 99.7859C286.009 99.5805 285.606 98.2064 285.787 98.1037C281.678 100.552 277.411 102.779 273.223 105.101C273.081 105.188 272.543 105.369 272.433 105.527C272.433 105.527 272.393 105.598 272.378 105.638L272.259 105.899V105.962C272.089 106.499 271.888 107.027 271.658 107.541C271.658 107.612 270.765 108.718 270.694 108.457C270.347 107.186 269.904 106.988 268.932 107.51L267.541 108.299L263.124 110.756L248.244 119.048L230.71 128.809L216.099 136.944L209.975 140.348C208.752 138.137 207.522 135.928 206.284 133.722L203.914 129.465C203.674 128.875 203.319 128.338 202.871 127.885C202.531 127.633 201.954 127.696 201.654 127.467C200.919 126.906 200.389 125.887 199.694 125.232C199.22 124.79 198.501 123.463 198.698 122.728C198.935 122.823 199.172 122.926 199.41 122.997C199.286 122.511 199.313 121.998 199.489 121.528C197.118 117.54 194.937 113.37 192.669 109.295L192.519 109.034L198.05 105.954L202.088 103.703C202.919 103.346 203.713 102.91 204.459 102.4C204.973 101.958 205.494 101.405 206.039 100.931C206.405 100.653 206.803 100.42 207.225 100.236L208.718 99.5095C208.795 99.4633 208.882 99.4362 208.971 99.4305C209.06 99.4402 209.148 99.4615 209.232 99.4937C210.022 99.6595 211.982 98.1985 212.693 97.8036L217.292 95.2448L231.168 87.513L248.458 77.8938L265.763 68.2509L279.687 60.5033L286.799 56.5546L287.131 56.3729L294.819 70.17C295.295 71.1 296.057 71.8529 296.993 72.3181C297.309 72.4208 297.664 72.6419 297.625 72.9657C297.585 73.2895 297.111 73.558 297.222 73.8897C297.332 74.2214 297.941 74.0951 298.083 74.3952C298.225 74.6953 297.838 75.1849 297.885 75.5956C298.049 76.0873 298.292 76.5488 298.605 76.9619L300.841 80.9817C302.089 83.2089 303.33 85.4439 304.586 87.6947L290.916 95.3079C290.983 95.3624 291.04 95.4295 291.082 95.5054L291.153 95.687C291.425 95.7832 291.689 95.8993 291.943 96.0345C292.052 96.0954 292.142 96.1851 292.203 96.2937C292.265 96.4024 292.295 96.5258 292.291 96.6505C292.289 96.7738 292.254 96.8944 292.19 96.9999C292.127 97.1053 292.036 97.1919 291.927 97.2508L291.09 97.7246C291.06 97.9077 290.975 98.0775 290.847 98.2115C290.718 98.3454 290.552 98.4373 290.371 98.4749C290.273 98.483 290.175 98.483 290.078 98.4749C289.995 98.5358 289.9 98.5779 289.799 98.5984C289.698 98.6188 289.594 98.6171 289.493 98.5933C289.315 98.5383 289.164 98.4165 289.073 98.2532C288.981 98.0899 288.957 97.8978 289.004 97.7167C289.036 97.6355 289.079 97.5585 289.13 97.4877C289.07 97.3726 289.043 97.2433 289.051 97.1138C289.059 96.9844 289.103 96.8596 289.177 96.7532H288.924C288.782 96.7532 288.656 96.6742 288.521 96.6347C287.811 97.0734 287.257 97.7259 286.941 98.4986C286.907 98.5407 286.89 98.5944 286.894 98.6486C286.894 98.7592 287.068 98.7671 287.17 98.8145C287.407 98.925 287.352 99.2725 287.233 99.5016C287.115 99.7306 286.973 100.023 287.131 100.228C287.191 100.297 287.257 100.361 287.328 100.418C287.668 100.805 287.147 101.926 287.976 101.468C287.918 101.224 287.955 100.967 288.079 100.749C288.219 100.53 288.436 100.369 288.687 100.299C289.302 100.15 289.929 100.06 290.56 100.031L307.036 90.8221C307.811 90.3883 308.383 89.6652 308.626 88.8112C308.869 87.9571 308.763 87.0416 308.332 86.2652L308.237 86.0994L300.793 72.7446L296.495 65.0208C296.076 64.2863 295.704 63.5202 295.246 62.7936C295.12 62.524 294.952 62.2761 294.748 62.0592Z" fill="#AB58E7"/>
<path d="M218.619 105.693C218.074 105.03 218.24 105.014 218.137 104.303C218.137 104.303 218.137 104.303 218.137 104.256L218.074 104.185L217.979 104.074C217.608 104.24 217.237 104.422 216.865 104.627L209.587 108.679L212.519 113.93C212.108 113.204 213.562 113.417 213.617 113.409C213.772 113.364 213.931 113.337 214.092 113.33C214.25 113.364 214.388 113.457 214.479 113.591C214.783 114.122 214.873 114.749 214.732 115.344C214.645 116.134 215.064 116.924 214.613 117.713C215 118.345 218.501 124.711 218.517 124.703L225.795 120.651C226.213 120.414 227.209 119.996 227.454 119.577C227.699 119.159 227.312 118.503 227.746 118.306C227.91 118.246 228.085 118.223 228.259 118.239C228.433 118.256 228.6 118.311 228.75 118.4C230.136 117.029 231.027 115.236 231.283 113.303C231.539 111.371 231.146 109.408 230.164 107.723C228.118 104.051 223.471 101.863 219.402 103.569C219.117 103.687 219.497 104.959 218.817 105.101C218.947 104.846 219.133 104.625 219.362 104.453M223.898 117.674L220.508 119.561C220.232 119.064 219.963 118.566 219.678 118.085C220.034 118.685 219.054 118.495 218.849 118.361C218.351 118.029 218.216 117.074 218.201 116.537C218.189 115.616 217.915 114.717 217.41 113.946C216.615 112.509 215.825 111.072 215.04 109.634L218.43 107.747C221.591 105.978 224.752 106.712 226.458 109.776C228.165 112.841 227.083 115.929 223.898 117.674Z" fill="#AB58E7"/>
<path d="M242.681 92.2439C242.854 92.619 242.904 93.0392 242.823 93.4443C242.784 93.6654 242.428 94.234 242.476 94.3762C242.602 94.6921 242.729 95.008 242.847 95.3239C242.868 95.3756 242.898 95.4236 242.934 95.4661C242.995 95.5069 243.066 95.5289 243.14 95.5292C244.396 95.6398 244.341 95.7662 244.42 96.8245C244.491 97.7327 245.273 98.2539 245.716 99.0437C246.31 100.081 246.568 101.277 246.455 102.468C246.342 103.658 245.862 104.784 245.083 105.691C244.303 106.598 243.262 107.242 242.102 107.533C240.942 107.825 239.72 107.751 238.604 107.32C238.574 107.349 238.542 107.375 238.509 107.399C238.343 107.483 238.153 107.505 237.972 107.462C237.561 107.346 237.189 107.121 236.895 106.811C236.602 106.501 236.398 106.118 236.304 105.701C236.292 105.639 236.292 105.574 236.304 105.512C236.081 105.235 235.882 104.939 235.712 104.627C235.306 103.975 235.039 103.245 234.928 102.485C234.817 101.725 234.864 100.949 235.066 100.208C235.269 99.4667 235.622 98.7752 236.104 98.1766C236.587 97.5781 237.187 97.0855 237.869 96.7297C238.857 96.1664 239.99 95.9081 241.125 95.9873L241.061 95.8925C240.382 94.9922 242.831 94.6289 241.725 94.0208C241.259 93.7681 241.338 92.6229 241.219 92.157C239.424 92.1975 237.667 92.6833 236.107 93.5706C231.049 96.3901 229.303 101.974 231.958 106.736C233.075 108.785 234.923 110.338 237.134 111.087C237.654 111.314 238.211 111.442 238.778 111.467C239.426 111.411 239.109 111.467 239.386 111.08C239.663 110.693 239.497 110.527 239.915 110.116C240.334 109.705 240.824 109.461 240.911 108.829C240.911 109.113 241.227 109.318 241.227 109.619C241.227 109.705 241.227 109.792 241.227 109.871C241.244 109.974 241.291 110.071 241.362 110.148C241.63 110.511 242.081 110.937 242.089 111.356C243.245 111.164 244.354 110.757 245.36 110.156C250.394 107.352 252.18 101.776 249.509 96.9982C248.126 94.5578 245.526 92.4018 242.681 92.2439Z" fill="#AB58E7"/>
<path d="M258.841 81.2503L264.262 90.9722L250.876 85.6809L247.81 87.3946C249.88 91.1065 252.077 94.7789 254.021 98.5618C254.155 98.1511 254.472 98.0722 254.851 98.0169C255.562 97.9221 255.538 98.2775 255.926 98.9804C255.973 99.0672 256.028 99.1541 256.115 99.1699C256.202 99.1857 256.376 99.0436 256.518 99.0593C256.66 99.0751 256.716 99.2489 256.676 99.3831C256.626 99.5147 256.56 99.6394 256.479 99.7543C256.25 100.189 256.629 100.465 256.581 100.86C256.581 101.065 255.894 101.902 255.973 102.045L256.763 103.403L260.43 101.365L259.45 99.6122H259.268C258.201 99.7543 258.675 98.3565 258.438 97.7799C258.055 96.9633 257.619 96.1719 257.135 95.4107L254.977 91.6119L265.858 95.8924C265.83 95.5801 265.868 95.2653 265.969 94.9684C266.056 94.8026 266.759 94.4946 266.759 94.3366C266.8 94.8459 267.038 95.3192 267.423 95.6555C267.842 96.0267 267.842 95.9714 267.763 96.6269L268.411 96.8875L271.461 95.1895L262.532 79.1812L258.841 81.2503Z" fill="#AB58E7"/>
<path d="M277.261 88.0819L275.191 84.3779L282.634 80.2317L281.054 77.3491L273.618 81.4953L271.682 78.0125L276.708 75.2167C276.92 74.9431 277.19 74.7194 277.498 74.5612C277.654 74.4811 277.834 74.4614 278.004 74.5059L280.129 73.3292C280.129 73.3292 278.62 70.6361 278.478 70.3518C277.751 70.6835 278.478 71.5996 277.743 72.0419C277.893 72.1998 278.114 72.7606 277.743 72.8316C277.53 72.8316 277.372 72.5631 277.158 72.5868C276.945 72.6105 276.937 72.7132 276.826 72.6816C276.793 72.6721 276.762 72.6551 276.736 72.6318C276.71 72.6086 276.689 72.5797 276.676 72.5473C276.574 72.3092 276.444 72.0838 276.289 71.876C275.791 71.3943 271.247 74.4191 270.615 74.7744L266.388 77.1437L275.309 93.1521L278.873 91.1698L278.944 91.075C279.205 90.7433 279.458 90.4037 279.734 90.0957C279.847 89.9891 279.99 89.9214 280.144 89.9029C280.298 89.8844 280.453 89.916 280.588 89.9931C280.652 90.0263 280.708 90.0719 280.754 90.1273L287.715 86.2496L286.056 83.2722L277.261 88.0819Z" fill="#AB58E7"/>
<path d="M287.557 258.416C287.557 258.416 282.358 247.091 288.292 235.916C294.227 224.741 295.957 222.111 292.172 219.829C288.387 217.546 286.641 228.761 286.641 228.761C286.641 228.761 283.48 221.037 286.08 212.966C288.68 204.895 290.371 191.721 286.775 190.308C283.18 188.894 286.088 206.727 282.966 212.808C281.375 208.54 280.347 204.082 279.908 199.548C279.482 193.056 280.153 182.694 277.308 180.033C274.464 177.372 272.654 179.243 275.444 193.538C277.12 202.099 278.048 210.791 278.217 219.513C278.217 219.513 272.046 200.717 267.944 200.172C263.843 199.627 263.812 205.7 267.36 210.984C270.908 216.267 277.704 225.713 278.818 230.609C278.818 230.609 272.054 216.472 265.961 220.8C259.869 225.128 271.263 233.681 276.336 236.769C281.41 239.857 284.942 259.198 284.942 259.198L287.557 258.416Z" fill="#AB58E7"/>
<path opacity="0.2" d="M287.557 258.416C287.557 258.416 282.358 247.091 288.292 235.916C294.227 224.741 295.957 222.111 292.172 219.829C288.387 217.546 286.641 228.761 286.641 228.761C286.641 228.761 283.48 221.037 286.08 212.966C288.68 204.895 290.371 191.721 286.775 190.308C283.18 188.894 286.088 206.727 282.966 212.808C281.375 208.54 280.347 204.082 279.908 199.548C279.482 193.056 280.153 182.694 277.308 180.033C274.464 177.372 272.654 179.243 275.444 193.538C277.12 202.099 278.048 210.791 278.217 219.513C278.217 219.513 272.046 200.717 267.944 200.172C263.843 199.627 263.812 205.7 267.36 210.984C270.908 216.267 277.704 225.713 278.818 230.609C278.818 230.609 272.054 216.472 265.961 220.8C259.869 225.128 271.263 233.681 276.336 236.769C281.41 239.857 284.942 259.198 284.942 259.198L287.557 258.416Z" fill="black"/>
<path d="M283.448 263.068C283.448 263.068 288.514 251.656 282.445 240.576C276.376 229.496 274.614 226.889 278.375 224.544C282.137 222.198 284.002 233.397 284.002 233.397C284.002 233.397 287.099 225.634 284.373 217.602C281.647 209.57 279.829 196.421 283.409 194.96C286.989 193.498 284.294 211.371 287.486 217.397C289.028 213.109 290 208.637 290.379 204.097C290.734 197.597 289.936 187.244 292.749 184.543C295.562 181.842 297.404 183.658 294.78 198.024C293.207 206.605 292.385 215.307 292.323 224.031C292.323 224.031 298.265 205.147 302.398 204.539C306.531 203.931 306.594 210.012 303.117 215.343C299.64 220.674 292.923 230.23 291.856 235.087C291.856 235.087 298.455 220.871 304.594 225.097C310.734 229.322 299.45 238.049 294.417 241.208C289.383 244.367 286.056 263.779 286.056 263.779L283.448 263.068Z" fill="#AB58E7"/>
<path d="M306.791 254.934H264.989L268.371 284.834H303.409L306.791 254.934Z" fill="#263238"/>
<path d="M92.9525 66.9319H65.3662C64.3037 66.9319 63.2846 67.3537 62.5333 68.1047C61.782 68.8556 61.3599 69.874 61.3599 70.936V97.7403C61.3599 98.8023 61.782 99.8207 62.5333 100.572C63.2846 101.323 64.3037 101.744 65.3662 101.744H74.1929L68.2505 109.816L78.5232 101.744H92.9445C94.0071 101.744 95.0261 101.323 95.7775 100.572C96.5288 99.8207 96.9509 98.8023 96.9509 97.7403V70.936C96.9509 69.8754 96.5299 68.8581 95.7803 68.1074C95.0306 67.3568 94.0136 66.934 92.9525 66.9319Z" fill="#AB58E7"/>
<path opacity="0.6" d="M92.9525 66.9319H65.3662C64.3037 66.9319 63.2846 67.3537 62.5333 68.1047C61.782 68.8556 61.3599 69.874 61.3599 70.936V97.7403C61.3599 98.8023 61.782 99.8207 62.5333 100.572C63.2846 101.323 64.3037 101.744 65.3662 101.744H74.1929L68.2505 109.816L78.5232 101.744H92.9445C94.0071 101.744 95.0261 101.323 95.7775 100.572C96.5288 99.8207 96.9509 98.8023 96.9509 97.7403V70.936C96.9509 69.8754 96.5299 68.8581 95.7803 68.1074C95.0306 67.3568 94.0136 66.934 92.9525 66.9319Z" fill="white"/>
<path d="M79.1635 96.8559C86.0808 96.8559 91.6883 91.2515 91.6883 84.3382C91.6883 77.4249 86.0808 71.8206 79.1635 71.8206C72.2462 71.8206 66.6387 77.4249 66.6387 84.3382C66.6387 91.2515 72.2462 96.8559 79.1635 96.8559Z" fill="#AB58E7"/>
<path opacity="0.2" d="M89.6111 86.7956C90.9735 81.0266 87.3986 75.246 81.6262 73.8844C75.8538 72.5228 70.07 76.0957 68.7076 81.8648C67.3452 87.6338 70.9201 93.4144 76.6925 94.776C82.4649 96.1376 88.2487 92.5647 89.6111 86.7956Z" fill="black"/>
<path d="M77.8277 89.4637C77.6822 89.4669 77.5375 89.4413 77.4019 89.3884C77.2663 89.3356 77.1424 89.2565 77.0375 89.1557L72.4779 84.6936C72.2684 84.4904 72.1481 84.2124 72.1437 83.9206C72.1392 83.6288 72.2509 83.3472 72.4542 83.1378C72.6575 82.9283 72.9357 82.8081 73.2277 82.8037C73.5196 82.7993 73.8014 82.9109 74.011 83.1141L77.7486 86.7706L84.2126 79.5602C84.4108 79.3605 84.6781 79.2445 84.9593 79.2361C85.2406 79.2277 85.5144 79.3274 85.7242 79.5148C85.934 79.7023 86.0639 79.963 86.087 80.2433C86.11 80.5236 86.0246 80.802 85.8483 81.0212L78.6179 89.0846C78.5182 89.1961 78.3965 89.2859 78.2606 89.3484C78.1246 89.4109 77.9773 89.4448 77.8277 89.4479V89.4637Z" fill="white"/>
<path d="M43.3827 266.875L66.1487 264.632V238.973H75.1729V264.624L98.0337 266.875C99.1291 266.981 100.146 267.491 100.885 268.306C101.624 269.121 102.033 270.182 102.032 271.282V274.702H39.3843V271.282C39.3831 270.182 39.7921 269.121 40.5314 268.306C41.2707 267.491 42.2873 266.981 43.3827 266.875Z" fill="#263238"/>
<path opacity="0.1" d="M43.3827 266.875L66.1487 264.632V238.973H75.1729V264.624L98.0337 266.875C99.1291 266.981 100.146 267.491 100.885 268.306C101.624 269.121 102.033 270.182 102.032 271.282V274.702H39.3843V271.282C39.3831 270.182 39.7921 269.121 40.5314 268.306C41.2707 267.491 42.2873 266.981 43.3827 266.875Z" fill="white"/>
<path d="M99.6216 284.834C102.882 284.834 105.524 282.193 105.524 278.935C105.524 275.676 102.882 273.035 99.6216 273.035C96.3616 273.035 93.7188 275.676 93.7188 278.935C93.7188 282.193 96.3616 284.834 99.6216 284.834Z" fill="#263238"/>
<path d="M41.7945 284.834C45.0545 284.834 47.6973 282.193 47.6973 278.935C47.6973 275.676 45.0545 273.035 41.7945 273.035C38.5344 273.035 35.8916 275.676 35.8916 278.935C35.8916 282.193 38.5344 284.834 41.7945 284.834Z" fill="#263238"/>
<path d="M73.4581 245.844H67.8318C66.9663 245.844 66.1362 245.5 65.5241 244.888C64.9121 244.277 64.5682 243.447 64.5682 242.582V217.357H76.7217V242.582C76.7217 243.447 76.3778 244.277 75.7658 244.888C75.1538 245.5 74.3237 245.844 73.4581 245.844Z" fill="#263238"/>
<path opacity="0.2" d="M73.4581 245.844H67.8318C66.9663 245.844 66.1362 245.5 65.5241 244.888C64.9121 244.277 64.5682 243.447 64.5682 242.582V217.357H76.7217V242.582C76.7217 243.447 76.3778 244.277 75.7658 244.888C75.1538 245.5 74.3237 245.844 73.4581 245.844Z" fill="white"/>
<path d="M39.147 167.918C39.147 167.918 45.9111 210.076 59.2657 217.365H45.6899C45.6899 217.365 32.2563 202.992 28.2104 167.918H39.147Z" fill="#263238"/>
<path opacity="0.1" d="M39.147 167.918C39.147 167.918 45.9111 210.076 59.2657 217.365H45.6899C45.6899 217.365 32.2563 202.992 28.2104 167.918H39.147Z" fill="white"/>
<path d="M45.0419 211.402H97.9227C98.9706 211.402 99.9756 211.818 100.717 212.559C101.457 213.299 101.874 214.304 101.874 215.351V220.635H41.0908V215.351C41.0908 214.304 41.5071 213.299 42.2481 212.559C42.989 211.818 43.994 211.402 45.0419 211.402Z" fill="#AB58E7"/>
<path d="M102.791 216.015H40.1191C39.2419 216.015 38.5308 216.725 38.5308 217.602V219.039C38.5308 219.916 39.2419 220.627 40.1191 220.627H102.791C103.668 220.627 104.379 219.916 104.379 219.039V217.602C104.379 216.725 103.668 216.015 102.791 216.015Z" fill="#263238"/>
<path opacity="0.6" d="M102.791 216.015H40.1191C39.2419 216.015 38.5308 216.725 38.5308 217.602V219.039C38.5308 219.916 39.2419 220.627 40.1191 220.627H102.791C103.668 220.627 104.379 219.916 104.379 219.039V217.602C104.379 216.725 103.668 216.015 102.791 216.015Z" fill="white"/>
<path d="M26.6064 176.495H48.3293C54.6984 176.495 58.8312 171.393 57.5668 165.099L55.8758 156.696C54.6114 150.378 48.4241 145.308 42.0629 145.308H20.3401C13.971 145.308 9.83816 150.409 11.1025 156.696L12.7935 165.099C14.0579 171.377 20.2373 176.495 26.6064 176.495Z" fill="#AB58E7"/>
<path d="M141.874 247.107L136.896 249.058L133.316 242.314L130.061 236.177L135.576 232.876L138.911 240.402L141.874 247.107Z" fill="#E4897B"/>
<path opacity="0.2" d="M138.911 240.402L133.316 242.314L130.061 236.177L135.576 232.876L138.911 240.402Z" fill="black"/>
<path d="M137.876 236.722L131.104 240.355C131.104 240.355 105.509 195.378 101.574 195.757C97.6383 196.136 60.3009 219.908 48.914 211.126C37.5271 202.344 48.6058 175.903 48.6058 175.903C48.6058 175.903 72.1619 169.174 74.6827 174.323C75.3471 175.865 75.9119 177.448 76.3738 179.062C76.8716 180.681 77.2509 182.047 77.2509 182.047C77.97 181.755 101.234 172.223 111.617 177.309C122.214 182.537 137.876 236.722 137.876 236.722Z" fill="#263238"/>
<path opacity="0.3" d="M137.876 236.722L131.104 240.355C131.104 240.355 105.509 195.378 101.574 195.757C97.6383 196.136 60.3009 219.908 48.914 211.126C37.5271 202.344 48.6058 175.903 48.6058 175.903C48.6058 175.903 72.1619 169.174 74.6827 174.323C75.3471 175.865 75.9119 177.448 76.3738 179.062C76.8716 180.681 77.2509 182.047 77.2509 182.047C77.97 181.755 101.234 172.223 111.617 177.309C122.214 182.537 137.876 236.722 137.876 236.722Z" fill="white"/>
<path d="M101.084 273.398L95.7734 272.79L95.7418 265.303L95.7339 258.432L102.158 258.132L101.589 266.212L101.084 273.398Z" fill="#E4897B"/>
<path opacity="0.2" d="M101.574 266.378L95.7261 265.446V258.504L102.15 258.164L101.574 266.378Z" fill="black"/>
<path d="M127.793 238.12L137.702 233.16L138.737 237.362L131.23 241.231L127.793 238.12Z" fill="#AB58E7"/>
<path d="M66.5039 211.197C66.5039 211.197 68.1317 211.015 93.1735 206.38C93.1735 206.38 93.7424 238.381 94.9278 262.239L102.64 262.484C102.64 262.484 113.703 209.57 112.399 201.546C111.095 193.522 101.581 192.472 101.581 192.472C101.581 192.472 85.058 205.337 66.5039 211.197Z" fill="#263238"/>
<path opacity="0.4" d="M66.5039 211.197C66.5039 211.197 68.1317 211.015 93.1735 206.38C93.1735 206.38 93.7424 238.381 94.9278 262.239L102.64 262.484C102.64 262.484 113.703 209.57 112.399 201.546C111.095 193.522 101.581 192.472 101.581 192.472C101.581 192.472 85.058 205.337 66.5039 211.197Z" fill="white"/>
<path opacity="0.3" d="M66.5039 211.197C66.5039 211.197 68.1317 211.015 93.1735 206.38C93.1735 206.38 93.7424 238.381 94.9278 262.239L102.64 262.484C102.64 262.484 113.703 209.57 112.399 201.546C111.095 193.522 101.581 192.472 101.581 192.472C101.581 192.472 85.058 205.337 66.5039 211.197Z" fill="black"/>
<path d="M93.5137 260.107L104.031 259.862L102.593 264.19L94.0589 264.269L93.5137 260.107Z" fill="#AB58E7"/>
<path opacity="0.3" d="M77.2827 182.063L63.6357 186.92C63.6357 186.92 70.8109 181.565 76.4055 179.078C76.9034 180.697 77.2827 182.063 77.2827 182.063Z" fill="black"/>
<path d="M47.0254 174.276L47.5311 178.059L73.1102 172.633L72.5176 168.163L47.0254 174.276Z" fill="#263238"/>
<path opacity="0.2" d="M47.0254 174.276L47.5311 178.059L73.1102 172.633L72.5176 168.163L47.0254 174.276Z" fill="black"/>
<path d="M55.5008 171.527L54.2266 171.764L55.4301 178.248L56.7043 178.011L55.5008 171.527Z" fill="#263238"/>
<path d="M66.6544 169.887L61.0732 171.144L62.027 175.373L67.6081 174.116L66.6544 169.887Z" fill="white"/>
<path d="M70.2432 167.245L68.9731 167.478L70.1608 173.941L71.4309 173.708L70.2432 167.245Z" fill="#263238"/>
<path opacity="0.3" d="M55.5008 171.527L54.2266 171.764L55.4301 178.248L56.7043 178.011L55.5008 171.527Z" fill="white"/>
<path opacity="0.3" d="M70.2432 167.245L68.9731 167.478L70.1608 173.941L71.4309 173.708L70.2432 167.245Z" fill="white"/>
<path d="M151.768 255.937C150.937 255.682 150.066 255.583 149.2 255.645C149.2 255.645 145.984 254.302 142.088 247.913L138.769 248.347C138.21 248.431 137.691 248.684 137.281 249.073C136.871 249.461 136.591 249.966 136.477 250.519C136.454 250.676 136.454 250.836 136.477 250.993C136.62 251.795 136.816 252.586 137.062 253.362C137.913 255.929 138.918 258.443 140.073 260.889L140.61 260.667L138.895 255.881C138.326 254.247 140.31 255.629 141.361 257.208C142.412 258.788 143.905 260.32 147.453 258.977C151.578 257.366 153.214 256.513 151.768 255.937Z" fill="#263238"/>
<path d="M141.258 246.215C141.258 246.215 146.584 254.302 149.199 255.645C149.199 255.645 146.268 258.014 142.356 254.207C137.307 249.319 136.461 250.993 136.461 250.993C136.416 250.035 136.461 249.075 136.596 248.126C136.999 246.27 141.258 246.215 141.258 246.215Z" fill="#E4897B"/>
<path d="M109.049 282.812C108.292 282.376 107.462 282.082 106.599 281.944C106.599 281.944 103.794 279.882 101.542 272.759L98.2153 272.395C97.6508 272.342 97.0836 272.465 96.5924 272.748C96.1011 273.031 95.71 273.46 95.4733 273.975C95.4024 274.117 95.3544 274.269 95.331 274.425C95.2757 275.232 95.2757 276.042 95.331 276.85C95.5454 279.545 95.9254 282.225 96.4689 284.874L97.0458 284.787L96.5322 279.717C96.3662 277.995 97.9703 279.811 98.6183 281.596C99.2663 283.381 100.349 285.221 104.11 284.755C108.504 284.163 110.29 283.721 109.049 282.812Z" fill="#263238"/>
<path d="M101.147 270.887C101.147 270.887 104.403 280.009 106.623 281.944C106.623 281.944 103.217 283.523 100.301 278.927C96.5479 272.98 95.3389 274.409 95.3389 274.409C95.5156 273.471 95.7802 272.55 96.1291 271.661C96.9667 269.924 101.147 270.887 101.147 270.887Z" fill="#E4897B"/>
<path d="M41.4543 109.776L34.7691 111.119C34.508 111.339 34.1994 111.495 33.8677 111.576C33.5359 111.657 33.1899 111.66 32.8568 111.585C30.8655 110.795 27.997 108.481 27.6335 107.636C27.0962 106.444 27.6335 102.945 29.0401 102.313C30.4467 101.681 35.2907 107.526 35.2907 107.526L42.4737 105.907L41.4543 109.776Z" fill="#E4897B"/>
<path d="M62.5373 131.984C62.5373 131.984 61.9288 110.337 59.4239 109.413C56.9189 108.489 38.0882 111.072 38.0882 111.072L37.6299 106.128C37.6299 106.128 59.5424 102.756 63.7858 104.754C68.0293 106.752 69.4279 139.013 68.6535 145.229L62.5373 131.984Z" fill="#AB58E7"/>
<path opacity="0.6" d="M62.5373 131.984C62.5373 131.984 61.9288 110.337 59.4239 109.413C56.9189 108.489 38.0882 111.072 38.0882 111.072L37.6299 106.128C37.6299 106.128 59.5424 102.756 63.7858 104.754C68.0293 106.752 69.4279 139.013 68.6535 145.229L62.5373 131.984Z" fill="white"/>
<path d="M38.4123 111.546L37.1006 106.112L38.9813 105.433L40.1745 111.711L38.4123 111.546Z" fill="#AB58E7"/>
<path opacity="0.7" d="M38.4123 111.546L37.1006 106.112L38.9813 105.433L40.1745 111.711L38.4123 111.546Z" fill="white"/>
<path d="M62.4267 129.283C62.4267 129.283 60.7436 135.87 52.636 137.971C44.5285 140.072 35.5596 134.583 35.5596 134.583L37.3454 150.299L47.2705 175.058L72.6362 168.448C72.6362 168.448 71.119 139.645 62.4267 129.283Z" fill="#AB58E7"/>
<path opacity="0.7" d="M62.4267 129.283C62.4267 129.283 60.7436 135.87 52.636 137.971C44.5285 140.072 35.5596 134.583 35.5596 134.583L37.3454 150.299L47.2705 175.058L72.6362 168.448C72.6362 168.448 71.119 139.645 62.4267 129.283Z" fill="white"/>
<path opacity="0.6" d="M66.8349 155.4L69.8041 154.464C70.1329 154.36 70.3153 154.01 70.2116 153.681L68.4427 148.078C68.339 147.749 67.9883 147.567 67.6596 147.671L64.6904 148.607C64.3616 148.71 64.1791 149.061 64.2829 149.389L66.0517 154.993C66.1555 155.322 66.5061 155.504 66.8349 155.4Z" fill="#AB58E7"/>
<path opacity="0.2" d="M66.2303 153.692L69.6064 152.628L68.149 148.011L64.7729 149.075L66.2303 153.692Z" fill="black"/>
<path d="M66.1172 146.342L65.3711 146.577L66.2294 149.296L66.9754 149.061L66.1172 146.342Z" fill="#263238"/>
<path d="M45.1843 104.683C38.9338 104.683 34.8089 111.301 36.2707 121.797C37.7326 132.293 43.5881 135.317 43.5881 135.317L43.2167 132.782C49.7171 134.257 56.4189 134.63 63.0431 133.888C63.0431 133.888 60.0245 125.327 61.0043 116.584C61.0043 116.584 62.9877 104.667 45.1843 104.683Z" fill="#263238"/>
<path opacity="0.2" d="M57.5986 135.839L60.1509 145.316L55.6625 141.896C55.6625 141.896 60.0324 151.879 61.194 157.691C61.194 157.691 57.4168 147.795 54.1611 142.37L52.2567 147.803L44.5996 140.008C44.5996 140.008 51.3638 134.828 57.5986 135.839Z" fill="black"/>
<path d="M53.8685 138.895L46.077 139.132C49.5303 134.717 43.2876 127.025 43.2876 127.025L50.9842 128.691C52.8175 136.304 55.9863 136.533 55.9863 136.533L53.8685 138.895Z" fill="#E4897B"/>
<path opacity="0.2" d="M53.1336 134.156C50.1606 133.908 47.3954 132.532 45.4054 130.31C44.7905 129.169 44.0822 128.081 43.2876 127.056L50.9842 128.731C51.3918 130.647 52.1184 132.481 53.1336 134.156Z" fill="black"/>
<path d="M50.9766 107.897C57.6855 108.458 59.5504 112.225 59.4635 119.183C59.3608 127.87 56.9269 133.848 48.6929 131.305C37.5036 127.854 39.8268 106.965 50.9766 107.897Z" fill="#E4897B"/>
<path d="M55.1565 118.464C55.6108 119.511 56.1892 120.5 56.8792 121.41C56.6583 121.669 56.3706 121.862 56.0475 121.969C55.7243 122.077 55.3779 122.093 55.0459 122.018L55.1565 118.464Z" fill="#DE5753"/>
<path d="M50.6128 117.342L52.0668 116.868C52.0668 116.868 51.2924 118.021 50.6128 117.342Z" fill="#263238"/>
<path d="M51.1185 117.176C50.8482 117.044 50.5387 117.014 50.2479 117.092C49.9571 117.171 49.7048 117.352 49.5381 117.603C49.7862 117.49 50.0556 117.431 50.3283 117.431C50.601 117.431 50.8704 117.49 51.1185 117.603V117.176Z" fill="#263238"/>
<path d="M48.416 113.978C48.3413 113.976 48.2704 113.945 48.2185 113.891C48.191 113.865 48.169 113.834 48.1541 113.799C48.1391 113.765 48.1313 113.727 48.1313 113.69C48.1313 113.652 48.1391 113.615 48.1541 113.58C48.169 113.545 48.191 113.514 48.2185 113.488C48.6591 113.103 49.1833 112.826 49.7497 112.677C50.3161 112.529 50.9091 112.515 51.482 112.635C51.5564 112.651 51.6216 112.696 51.663 112.759C51.7045 112.823 51.719 112.901 51.7033 112.975C51.6876 113.049 51.643 113.114 51.5792 113.156C51.5155 113.197 51.4379 113.212 51.3635 113.196C50.8854 113.099 50.3914 113.11 49.9182 113.229C49.4449 113.347 49.0045 113.571 48.6294 113.883C48.6029 113.914 48.5701 113.938 48.5332 113.954C48.4963 113.971 48.4564 113.979 48.416 113.978Z" fill="#263238"/>
<path d="M58.9418 114.097C58.8791 114.099 58.8176 114.079 58.7679 114.041C58.4517 113.752 58.0748 113.536 57.6647 113.41C57.2546 113.285 56.8216 113.252 56.3973 113.315C56.361 113.325 56.3231 113.327 56.2857 113.322C56.2484 113.318 56.2124 113.305 56.1797 113.287C56.1471 113.268 56.1184 113.243 56.0954 113.213C56.0724 113.184 56.0555 113.15 56.0457 113.113C56.0358 113.077 56.0332 113.039 56.038 113.002C56.0428 112.964 56.0549 112.928 56.0736 112.896C56.0923 112.863 56.1172 112.835 56.147 112.812C56.1768 112.789 56.2108 112.772 56.2472 112.762C56.7594 112.671 57.2855 112.699 57.7854 112.843C58.2852 112.986 58.7456 113.242 59.1314 113.591C59.1899 113.639 59.2276 113.708 59.2364 113.783C59.2453 113.858 59.2246 113.934 59.1788 113.994C59.1502 114.028 59.1138 114.056 59.0726 114.074C59.0314 114.091 58.9866 114.099 58.9418 114.097Z" fill="#263238"/>
<path d="M42.6713 118.59C42.6713 118.59 46.2668 113.346 46.1482 109.05C46.1482 109.05 59.9058 104.722 59.4396 118.274C59.4396 118.274 61.7312 106.428 50.2178 105.172C38.7045 103.916 37.369 120.833 42.9084 126.361C42.9084 126.361 40.4666 121.875 42.6713 118.59Z" fill="#263238"/>
<path d="M43.675 120.099C43.675 119.317 43.3647 118.567 42.8122 118.013C42.2596 117.459 41.51 117.147 40.7275 117.145C38.6256 117.2 37.2822 121.386 42.3712 122.847C43.0981 123.052 43.5802 122.365 43.675 120.099Z" fill="#E4897B"/>
<path d="M55.1013 123.992C54.6092 124.653 54.1681 125.35 53.7817 126.077C53.6473 126.03 53.5051 125.99 53.3708 125.935C51.5138 125.279 50.8658 124.355 50.7157 123.566C50.6449 123.164 50.6748 122.752 50.8026 122.365C50.8684 122.143 50.9641 121.93 51.0871 121.733C52.0526 122.651 53.2068 123.346 54.4692 123.771C54.8485 123.913 55.1013 123.992 55.1013 123.992Z" fill="#263238"/>
<path d="M54.4693 123.755L54.0663 124.363C52.312 123.739 51.1662 123.068 50.8027 122.349C50.8686 122.127 50.9643 121.914 51.0872 121.718C52.0528 122.635 53.207 123.33 54.4693 123.755Z" fill="white"/>
<path d="M53.3709 125.935C51.5139 125.279 50.866 124.355 50.7158 123.566C51.4183 123.824 52.0687 124.207 52.636 124.695C53.0039 125.022 53.2607 125.455 53.3709 125.935Z" fill="#DE5753"/>
<path d="M50.7945 108.394C50.7945 108.394 47.1674 119.206 40.2294 118.464C33.2914 117.721 45.184 104.659 45.184 104.659C45.184 104.659 56.887 101.318 61.9839 107.818C67.0807 114.318 59.4631 118.259 59.4631 118.259C59.4631 118.259 60.601 109.777 50.7945 108.394Z" fill="#263238"/>
<path d="M45.2633 117.595C45.2231 117.593 45.1843 117.58 45.1509 117.558C45.1175 117.536 45.0908 117.505 45.0736 117.469C45.0555 117.418 45.0578 117.363 45.0799 117.314C45.1021 117.266 45.1423 117.228 45.1921 117.208C50.7236 115.099 50.5972 107.684 50.5972 107.605C50.5949 107.579 50.5982 107.553 50.6068 107.528C50.6154 107.504 50.6291 107.482 50.6471 107.463C50.6651 107.444 50.6868 107.429 50.7109 107.42C50.735 107.41 50.7609 107.406 50.7868 107.407C50.8382 107.409 50.8872 107.429 50.9249 107.464C50.9627 107.498 50.9866 107.546 50.9923 107.597C50.9923 107.676 51.1187 115.368 45.3344 117.579L45.2633 117.595Z" fill="#263238"/>
<path d="M57.4248 117.998L58.8788 117.532C58.8788 117.532 58.0965 118.677 57.4248 117.998Z" fill="#263238"/>
<path d="M57.9305 117.832C57.6596 117.698 57.349 117.669 57.0576 117.749C56.7663 117.829 56.5145 118.013 56.3501 118.266C56.5945 118.145 56.8623 118.078 57.1351 118.069C57.4079 118.061 57.6793 118.112 57.9305 118.219V117.832Z" fill="#263238"/>
<path d="M47.1757 135.941L53.0469 138.926L52.9521 144.873L44.5601 139.985L47.1757 135.941Z" fill="#AB58E7"/>
<path d="M53.9399 134.82L54.2876 138.429L58.1202 142.48L57.5986 135.815L53.9399 134.82Z" fill="#AB58E7"/>
<path d="M26.8118 93.9813L24.3622 87.6632C24.4069 87.3255 24.3724 86.9819 24.2613 86.6598C24.1502 86.3377 23.9656 86.0458 23.7221 85.8073C22.0153 84.5358 18.4909 83.3828 17.6059 83.517C16.3179 83.7066 13.6549 86.0363 13.884 87.5606C14.1132 89.0848 21.636 90.0246 21.636 90.0246L24.133 96.9508L26.8118 93.9813Z" fill="#E4897B"/>
<path d="M37.3613 150.299C37.3613 150.299 42.1025 146.532 40.2139 138.208L35.1171 115.178L26.3615 91.3909L22.0786 93.5548C22.0786 93.5548 29.2695 116.797 29.9333 118.369C30.2731 119.159 31.6243 131.218 33.4655 139.298C35.1566 146.737 37.3613 150.299 37.3613 150.299Z" fill="#AB58E7"/>
<path opacity="0.6" d="M37.3613 150.299C37.3613 150.299 42.1025 146.532 40.2139 138.208L35.1171 115.178L26.3615 91.3909L22.0786 93.5548C22.0786 93.5548 29.2695 116.797 29.9333 118.369C30.2731 119.159 31.6243 131.218 33.4655 139.298C35.1566 146.737 37.3613 150.299 37.3613 150.299Z" fill="white"/>
<path d="M21.3276 92.8756L26.3297 90.3721L27.4202 92.0385L21.5726 94.6289L21.3276 92.8756Z" fill="#AB58E7"/>
<path opacity="0.7" d="M21.3276 92.8756L26.3297 90.3721L27.4202 92.0385L21.5726 94.6289L21.3276 92.8756Z" fill="white"/>
<path opacity="0.6" d="M47.1757 135.941L53.0469 138.926L52.9521 144.873L44.5601 139.985L47.1757 135.941Z" fill="white"/>
<path opacity="0.6" d="M53.9399 134.82L54.2876 138.429L58.1202 142.48L57.5986 135.815L53.9399 134.82Z" fill="white"/>
<path d="M220.674 123.526H197V141.911H220.674V123.526Z" fill="white"/>
<path opacity="0.1" d="M220.674 123.526H214.605V141.911H220.674V123.526Z" fill="black"/>
<path d="M195.641 158.149H222.405V124.782H213.784L195.641 133.461V158.149Z" fill="#AB58E7"/>
<path opacity="0.2" d="M222.405 124.782H213.784V158.149H222.405V124.782Z" fill="black"/>
<path opacity="0.7" d="M210.931 140.04H198.398V146.042H210.931V140.04Z" fill="white"/>
<path opacity="0.7" d="M210.931 148.048H198.398V148.909H210.931V148.048Z" fill="white"/>
<path opacity="0.7" d="M221.567 150.567H214.605V155.661H221.567V150.567Z" fill="white"/>
<path d="M210.615 122.523H186.94V141.911H210.615V122.523Z" fill="white"/>
<path opacity="0.1" d="M210.615 122.523H204.546V141.911H210.615V122.523Z" fill="black"/>
<path d="M185.581 158.149H212.345V124.782H203.724L185.581 133.461V158.149Z" fill="#AB58E7"/>
<path opacity="0.2" d="M212.345 124.782H203.724V158.149H212.345V124.782Z" fill="black"/>
<path opacity="0.7" d="M200.872 140.04H188.339V146.042H200.872V140.04Z" fill="white"/>
<path opacity="0.7" d="M200.872 148.048H188.339V148.909H200.872V148.048Z" fill="white"/>
<path opacity="0.7" d="M211.508 150.567H204.546V155.661H211.508V150.567Z" fill="white"/>
<path d="M168.955 284.834H173.799L182.491 163.803H176.067L168.955 284.834Z" fill="#263238"/>
<path opacity="0.1" d="M168.955 284.834H173.799L182.065 169.814L182.491 164.001H176.067L175.727 169.814L168.955 284.834Z" fill="white"/>
<path opacity="0.2" d="M175.727 169.529H182.065L182.491 164.001H176.067L175.727 169.529Z" fill="black"/>
<path d="M133.427 284.834H138.271L139.062 163.803H132.637L133.427 284.834Z" fill="#263238"/>
<path opacity="0.1" d="M132.629 164.001L132.763 183.524L133.419 284.834H138.263L138.927 183.524L139.053 164.001H132.629Z" fill="white"/>
<path opacity="0.2" d="M132.629 164.001L132.763 183.745H138.927L139.053 164.001H132.629Z" fill="black"/>
<path d="M82.0317 284.834H86.8757L95.568 163.803H89.1436L82.0317 284.834Z" fill="#263238"/>
<path opacity="0.1" d="M82.0317 284.834H86.8757L95.1492 169.814L95.568 164.001H89.1436L88.8038 169.814L82.0317 284.834Z" fill="white"/>
<path opacity="0.2" d="M88.8042 169.529H95.1496L95.5684 164.001H89.144L88.8042 169.529Z" fill="black"/>
<path d="M224.333 284.834H229.177L222.057 163.803H215.633L224.333 284.834Z" fill="#263238"/>
<path opacity="0.1" d="M215.633 164.001L216.067 169.814L224.333 284.834H229.169L222.405 169.814L222.057 164.001H215.633Z" fill="white"/>
<path opacity="0.2" d="M222.057 164.001H215.633L216.067 169.529H222.405L222.057 164.001Z" fill="black"/>
<path d="M225.447 166.836L85.7695 166.836C85.5453 166.836 85.3234 166.792 85.1163 166.706C84.9092 166.621 84.721 166.495 84.5625 166.337C84.4041 166.178 84.2783 165.99 84.1926 165.783C84.1068 165.576 84.0626 165.354 84.0626 165.13V160.779L227.154 160.779V165.13C227.154 165.354 227.11 165.576 227.024 165.783C226.938 165.99 226.812 166.178 226.654 166.337C226.495 166.495 226.307 166.621 226.1 166.706C225.893 166.792 225.671 166.836 225.447 166.836Z" fill="#AB58E7"/>
<path opacity="0.4" d="M225.447 166.836L85.7695 166.836C85.5453 166.836 85.3234 166.792 85.1163 166.706C84.9092 166.621 84.721 166.495 84.5625 166.337C84.4041 166.178 84.2783 165.99 84.1926 165.783C84.1068 165.576 84.0626 165.354 84.0626 165.13V160.779L227.154 160.779V165.13C227.154 165.354 227.11 165.576 227.024 165.783C226.938 165.99 226.812 166.178 226.654 166.337C226.495 166.495 226.307 166.621 226.1 166.706C225.893 166.792 225.671 166.836 225.447 166.836Z" fill="white"/>
<path opacity="0.2" d="M84.0626 163.803L227.154 163.803V160.771L84.0626 160.771V163.803Z" fill="black"/>
<path d="M81.06 161.561H230.149C230.373 161.562 230.596 161.518 230.803 161.433C231.011 161.348 231.199 161.222 231.358 161.063C231.517 160.905 231.643 160.716 231.728 160.509C231.813 160.301 231.857 160.079 231.856 159.855C231.856 159.402 231.676 158.968 231.356 158.649C231.036 158.329 230.602 158.149 230.149 158.149H81.06C80.6066 158.149 80.1716 158.328 79.8502 158.648C79.5289 158.968 79.3473 159.402 79.3452 159.855C79.3452 160.079 79.3896 160.302 79.4759 160.509C79.5622 160.717 79.6886 160.905 79.8479 161.064C80.0073 161.222 80.1964 161.348 80.4044 161.433C80.6124 161.518 80.8352 161.562 81.06 161.561Z" fill="#AB58E7"/>
<path opacity="0.4" d="M81.06 161.561H230.149C230.373 161.562 230.596 161.518 230.803 161.433C231.011 161.348 231.199 161.222 231.358 161.063C231.517 160.905 231.643 160.716 231.728 160.509C231.813 160.301 231.857 160.079 231.856 159.855C231.856 159.402 231.676 158.968 231.356 158.649C231.036 158.329 230.602 158.149 230.149 158.149H81.06C80.6066 158.149 80.1716 158.328 79.8502 158.648C79.5289 158.968 79.3473 159.402 79.3452 159.855C79.3452 160.079 79.3896 160.302 79.4759 160.509C79.5622 160.717 79.6886 160.905 79.8479 161.064C80.0073 161.222 80.1964 161.348 80.4044 161.433C80.6124 161.518 80.8352 161.562 81.06 161.561Z" fill="white"/>
<path d="M198.114 158.133V155.464H199.908L198.114 154.421H199.457L197.663 153.253H195.964V151.91H197.94L195.964 151.128V148.214H197.94V146.311H199.908L197.94 145.647V144.289H199.346L198.193 143.144L197.197 142.141H166.663V143.507H164.648L166.893 144.518V145.647H162.776V147.748H160.95L162.776 148.664V151.01H164.072V152.131H166.663V155.464H165.209L166.403 156.656V158.149L198.114 158.133Z" fill="#AB58E7"/>
<path opacity="0.7" d="M198.114 158.133V155.464H199.908L198.114 154.421H199.457L197.663 153.253H195.964V151.91H197.94L195.964 151.128V148.214H197.94V146.311H199.908L197.94 145.647V144.289H199.346L198.193 143.144L197.197 142.141H166.663V143.507H164.648L166.893 144.518V145.647H162.776V147.748H160.95L162.776 148.664V151.01H164.072V152.131H166.663V155.464H165.209L166.403 156.656V158.149L198.114 158.133Z" fill="white"/>
<path opacity="0.1" d="M198.114 158.133V155.464H199.907L198.114 154.421H199.457L197.663 153.253H195.964V151.91H197.94L195.964 151.128V148.214H197.94V146.311H199.907L197.94 145.647V144.289H199.346L198.193 143.144L197.197 142.141H181.116V143.507H179.101L181.337 144.518V145.647H177.22V147.748H175.395L177.22 148.664V151.01H178.516V152.131H181.116V155.464H179.662L180.847 156.656V158.149L198.114 158.133Z" fill="black"/>
<path opacity="0.1" d="M166.893 145.647H181.338L166.893 145.126V145.647Z" fill="black"/>
<path opacity="0.1" d="M166.664 152.131H181.117L181.18 153.142L166.664 152.131Z" fill="black"/>
<path opacity="0.1" d="M164.071 151.01H178.516L164.071 151.515V151.01Z" fill="black"/>
<path opacity="0.1" d="M166.664 155.464H181.117L166.664 154.935V155.464Z" fill="black"/>
<path opacity="0.1" d="M166.403 156.656H180.848V157.209L166.403 156.656Z" fill="black"/>
<path opacity="0.1" d="M162.775 147.748H177.22L162.775 147.29V147.748Z" fill="black"/>
<path opacity="0.1" d="M166.664 143.507H181.117L166.664 143.001V143.507Z" fill="black"/>
<path opacity="0.1" d="M197.94 144.289H183.282L197.94 144.739V144.289Z" fill="black"/>
<path opacity="0.1" d="M181.337 145.647H197.94L182.886 146.137L181.337 145.647Z" fill="black"/>
<path opacity="0.1" d="M177.221 147.748L197.94 148.214V147.748H177.221Z" fill="black"/>
<path opacity="0.1" d="M177.221 148.664H187.47L177.221 149.161V148.664Z" fill="black"/>
<path opacity="0.1" d="M195.964 151.128L181.116 151.009L195.964 150.678V151.128Z" fill="black"/>
<path opacity="0.1" d="M195.964 151.91H180.848L195.964 152.415V151.91Z" fill="black"/>
<path opacity="0.1" d="M198.114 154.421H181.337V154.934L198.114 154.421Z" fill="black"/>
<path opacity="0.1" d="M198.114 155.464H185.96L198.114 155.803V155.464Z" fill="black"/>
<path d="M159.236 154.69V157.225C159.236 157.872 158.445 158.141 157.821 158.141H107.153C106.505 158.141 105.723 157.872 105.723 157.225V154.69H159.236Z" fill="#263238"/>
<path opacity="0.4" d="M159.236 154.69V157.225C159.236 157.872 158.445 158.141 157.821 158.141H107.153C106.505 158.141 105.723 157.872 105.723 157.225V154.69H159.236Z" fill="white"/>
<path opacity="0.2" d="M159.235 154.69V157.225C159.235 157.872 158.445 158.141 157.821 158.141H124.403C123.755 158.141 122.98 157.872 122.98 157.225V154.69H159.235Z" fill="black"/>
<path d="M167.714 128.375L161.677 155.724C161.573 156.168 161.324 156.565 160.969 156.851C160.614 157.137 160.173 157.296 159.717 157.304H126.774C126.569 157.299 126.367 157.247 126.186 157.152C126.004 157.057 125.847 156.921 125.727 156.755C125.607 156.589 125.527 156.397 125.493 156.195C125.459 155.993 125.473 155.786 125.533 155.59L131.554 128.454C131.678 128.04 131.94 127.68 132.296 127.436C132.653 127.192 133.083 127.077 133.514 127.111H166.466C167.351 127.08 167.904 127.483 167.714 128.375Z" fill="#263238"/>
<path opacity="0.4" d="M167.714 128.375L161.677 155.724C161.573 156.168 161.324 156.565 160.969 156.851C160.614 157.137 160.174 157.296 159.717 157.304H127.888C127.683 157.299 127.482 157.247 127.3 157.152C127.119 157.057 126.962 156.921 126.841 156.755C126.721 156.589 126.641 156.397 126.607 156.195C126.574 155.993 126.587 155.786 126.647 155.59L132.676 128.454C132.799 128.039 133.06 127.679 133.417 127.434C133.774 127.19 134.205 127.076 134.636 127.111H166.466C167.351 127.08 167.904 127.483 167.714 128.375Z" fill="white"/>
<path opacity="0.2" d="M151.468 142.275C151.468 144.644 148.955 146.516 147.114 146.516C145.272 146.516 144.182 144.613 144.743 142.275C145.304 139.937 147.114 138.113 148.899 138.042C148.378 140.411 149.5 142.275 151.333 142.275H151.468Z" fill="black"/>
</g>
<defs>
<clipPath id="clip0_64_7512">
<rect width="339" height="293" fill="white"/>
</clipPath>
</defs>
</svg>
